<?xml version="1.0" encoding="utf-8"?>
<!-- Generator: Adobe Illustrator 16.2.1, SVG Export Plug-In . SVG Version: 6.00 Build 0)  -->
<!DOCTYPE svg PUBLIC "-//W3C//DTD SVG 1.1//EN" "http://www.w3.org/Graphics/SVG/1.1/DTD/svg11.dtd">
<svg version="1.1" id="Layer_1" xmlns="http://www.w3.org/2000/svg" xmlns:xlink="http://www.w3.org/1999/xlink" x="0px" y="0px"
	 width="283.619px" height="282.966px" viewBox="7.638 7.598 283.619 282.966" enable-background="new 7.638 7.598 283.619 282.966"
	 xml:space="preserve">
<radialGradient id="SVGID_1_" cx="13.3882" cy="197.9785" r="264.5797" gradientTransform="matrix(1 0 0 -1 44 255)" gradientUnits="userSpaceOnUse">
	<stop  offset="0" style="stop-color:#9DD5F6"/>
	<stop  offset="0.0711" style="stop-color:#98D3F5"/>
	<stop  offset="0.1575" style="stop-color:#89CEF3"/>
	<stop  offset="0.2516" style="stop-color:#70C6EF"/>
	<stop  offset="0.3514" style="stop-color:#4EBBEA"/>
	<stop  offset="0.4546" style="stop-color:#23ADE3"/>
	<stop  offset="0.5" style="stop-color:#0DA6E0"/>
	<stop  offset="1" style="stop-color:#2E77BC"/>
</radialGradient>
<path fill="url(#SVGID_1_)" d="M289.584,7.598H7.639v282.966h281.945v-93.387c1.12-1.619,1.673-3.689,1.673-6.222
	c0-2.897-0.553-4.692-1.673-6.205"/>
<path fill="#FFFFFF" d="M33.053,130.042l-5.424-13.217l-5.393,13.217 M152.543,124.779c-1.089,0.661-2.377,0.683-3.92,0.683h-9.627
	v-7.364h9.758c1.381,0,2.822,0.062,3.758,0.598c1.028,0.483,1.664,1.511,1.664,2.931
	C154.176,123.076,153.57,124.242,152.543,124.779z M221.221,130.042l-5.484-13.217l-5.453,13.217H221.221z M93.201,144.348h-8.124
	l-0.03-25.966l-11.491,25.966h-6.958l-11.521-25.989v25.989H38.959l-3.045-7.395h-16.5l-3.076,7.395H7.731l14.191-33.154h11.774
	l13.478,31.39v-31.39h12.934l10.371,22.491l9.527-22.491H93.2L93.201,144.348L93.201,144.348z M125.58,144.348H99.107v-33.154
	h26.473v6.904h-18.548v5.976h18.103v6.796h-18.103v6.621h18.548V144.348z M162.906,120.123c0,5.286-3.528,8.017-5.584,8.837
	c1.734,0.66,3.215,1.826,3.92,2.792c1.119,1.649,1.312,3.122,1.312,6.083v6.513h-7.994l-0.029-4.181
	c0-1.995,0.191-4.864-1.252-6.459c-1.157-1.166-2.922-1.419-5.775-1.419h-8.507v12.059h-7.924v-33.154H149.3
	c4.05,0,7.034,0.107,9.597,1.588C161.402,114.263,162.906,116.425,162.906,120.123z M175.588,144.348h-8.086v-33.154h8.086V144.348z
	 M269.396,144.348h-11.23l-15.021-24.884v24.884h-16.139l-3.084-7.395H207.46l-2.992,7.395h-9.272
	c-3.853,0-8.729-0.852-11.491-3.667c-2.785-2.815-4.233-6.628-4.233-12.657c0-4.917,0.865-9.412,4.271-12.964
	c2.562-2.646,6.574-3.866,12.035-3.866h7.672v7.104h-7.512c-2.892,0-4.524,0.43-6.098,1.964c-1.351,1.396-2.277,4.035-2.277,7.51
	c0,3.552,0.705,6.113,2.179,7.786c1.22,1.312,3.437,1.71,5.522,1.71h3.56l11.169-26.073h11.874l13.417,31.359v-31.359h12.066
	l13.93,23.09v-23.09h8.117V144.348L269.396,144.348z M7.639,150.859h13.54l3.053-7.363h6.835l3.045,7.363h26.641v-5.629l2.378,5.654
	h13.83l2.378-5.738v5.713h66.208l-0.031-12.087h1.281c0.897,0.031,1.159,0.114,1.159,1.595v10.492h34.243v-2.813
	c2.762,1.48,7.058,2.813,12.711,2.813h14.406l3.082-7.363h6.836l3.015,7.363h27.761v-6.994l4.204,6.994h22.246V104.62h-22.017v5.461
	l-3.082-5.461H228.77v5.461l-2.83-5.461h-30.516c-5.107,0-9.598,0.713-13.225,2.7v-2.7h-21.059v2.7
	c-2.308-2.048-5.453-2.7-8.949-2.7H75.258l-5.162,11.943l-5.301-11.943H40.563v5.461l-2.662-5.461H17.235l-9.597,21.985
	L7.639,150.859L7.639,150.859z"/>
<path fill="#FFFFFF" d="M289.584,175.314h-14.443c-1.441,0-2.399,0.055-3.207,0.6c-0.836,0.537-1.158,1.334-1.158,2.386
	c0,1.251,0.707,2.103,1.733,2.47c0.837,0.291,1.734,0.377,3.054,0.377l4.295,0.114c4.334,0.107,7.228,0.853,8.992,2.669
	c0.32,0.254,0.514,0.537,0.734,0.821 M289.584,197.178c-1.925,2.815-5.676,4.242-10.754,4.242h-15.305v-7.111h15.242
	c1.513,0,2.57-0.199,3.207-0.82c0.553-0.514,0.938-1.258,0.938-2.163c0-0.966-0.385-1.733-0.969-2.193
	c-0.574-0.506-1.411-0.735-2.791-0.735c-7.441-0.254-16.725,0.229-16.725-10.265c0-4.81,3.055-9.873,11.37-9.873h15.785v-6.598
	h-14.666c-4.426,0-7.642,1.06-9.918,2.708v-2.708h-21.692c-3.47,0-7.541,0.86-9.468,2.708v-2.708h-38.737v2.708
	c-3.084-2.225-8.285-2.708-10.687-2.708h-25.552v2.708c-2.439-2.362-7.863-2.708-11.169-2.708h-28.597l-6.544,7.082l-6.129-7.082
	H63.706v46.272h41.914l6.743-7.194l6.352,7.194l25.836,0.022v-10.885h2.54c3.429,0.053,7.472-0.085,11.038-1.628v12.488h21.311
	v-12.06h1.027c1.312,0,1.441,0.054,1.441,1.365v10.694h64.736c4.109,0,8.405-1.053,10.785-2.961v2.961h20.533
	c4.273,0,8.446-0.6,11.621-2.134V197.178L289.584,197.178z M257.973,183.93c1.543,1.598,2.37,3.613,2.37,7.026
	c0,7.134-4.457,10.464-12.448,10.464h-15.436v-7.111h15.373c1.503,0,2.568-0.199,3.236-0.82c0.545-0.514,0.937-1.258,0.937-2.163
	c0-0.966-0.423-1.733-0.967-2.193c-0.606-0.506-1.442-0.735-2.822-0.735c-7.411-0.254-16.692,0.229-16.692-10.265
	c0-4.81,3.022-9.873,11.33-9.873h15.888v7.058h-14.537c-1.44,0-2.378,0.055-3.175,0.6c-0.868,0.537-1.19,1.334-1.19,2.386
	c0,1.251,0.737,2.103,1.734,2.47c0.836,0.291,1.733,0.377,3.084,0.377l4.266,0.115C253.225,181.368,256.178,182.111,257.973,183.93z
	 M186.465,181.882c-1.061,0.629-2.371,0.683-3.913,0.683h-9.627v-7.447h9.759c1.41,0,2.822,0.029,3.781,0.599
	c1.027,0.537,1.641,1.564,1.641,2.983S187.492,181.261,186.465,181.882z M191.251,186.009c1.765,0.651,3.206,1.818,3.882,2.784
	c1.119,1.619,1.281,3.13,1.312,6.053v6.574h-7.955v-4.148c0-1.996,0.191-4.949-1.281-6.491c-1.158-1.188-2.923-1.472-5.814-1.472
	h-8.469v12.111h-7.963v-33.162h18.296c4.013,0,6.935,0.178,9.535,1.565c2.501,1.511,4.074,3.581,4.074,7.364
	C196.867,182.48,193.337,185.182,191.251,186.009z M201.262,168.258h26.449v6.858h-18.557v6.028h18.104v6.767h-18.104v6.598
	l18.557,0.03v6.881h-26.449V168.258z M147.795,183.562h-10.241v-8.445h10.333c2.861,0,4.847,1.166,4.847,4.066
	C152.734,182.051,150.84,183.562,147.795,183.562z M129.661,198.404l-12.167-13.508l12.167-13.08V198.404z M98.24,194.509H78.756
	v-6.598h17.398v-6.767H78.756v-6.028h19.868l8.668,9.663L98.24,194.509z M161.242,179.184c0,9.211-6.873,11.113-13.8,11.113h-9.888
	v11.123h-15.403l-9.758-10.979l-10.141,10.979h-31.39v-33.162h31.873l9.75,10.87l10.08-10.87h25.322
	C154.176,168.258,161.242,169.999,161.242,179.184z"/>
</svg>
