<?xml version="1.0" encoding="utf-8"?>
<!-- Generator: Adobe Illustrator 16.2.1, SVG Export Plug-In . SVG Version: 6.00 Build 0)  -->
<!DOCTYPE svg PUBLIC "-//W3C//DTD SVG 1.1//EN" "http://www.w3.org/Graphics/SVG/1.1/DTD/svg11.dtd">
<svg version="1.1" id="Layer_1" xmlns="http://www.w3.org/2000/svg" xmlns:xlink="http://www.w3.org/1999/xlink" x="0px" y="0px"
	 width="283.465px" height="212.604px" viewBox="17.715 16.537 283.465 212.604"
	 enable-background="new 17.715 16.537 283.465 212.604" xml:space="preserve">
<linearGradient id="SVGID_1_" gradientUnits="userSpaceOnUse" x1="-63.1147" y1="333.8145" x2="-32.2798" y2="333.8145" gradientTransform="matrix(2.8346 0 0 -2.8346 392.6821 1069.0831)">
	<stop  offset="0" style="stop-color:#007B40"/>
	<stop  offset="1" style="stop-color:#55B330"/>
</linearGradient>
<path fill="url(#SVGID_1_)" d="M231.098,127.146h0.177h0.342h0.342h0.343h0.342h0.342h0.342h0.342h0.342h0.342h0.342h0.342h0.342
	h0.342h0.343h0.342h0.342h0.343h0.342h0.342h0.342h0.342h0.342h0.342h0.342h0.342h0.343h0.342h0.342h0.343h0.342h0.342h0.342h0.342
	h0.342h0.342h0.342h0.342h0.342h0.343h0.342h0.342h0.343h0.342h0.342h0.342h0.342h0.342h0.342h0.342h0.342h0.342h0.343h0.342h0.342
	h0.343h0.342h0.342h0.342h0.342h0.285l0.057,0.001c0.105,0.004,0.221,0.008,0.342,0.015c0.109,0.006,0.225,0.014,0.342,0.022
	c0.113,0.008,0.229,0.018,0.343,0.028s0.229,0.022,0.342,0.034c0.118,0.014,0.232,0.027,0.342,0.042
	c0.122,0.017,0.237,0.033,0.343,0.052c0.074,0.012,0.145,0.025,0.206,0.039l0.136,0.03c0.113,0.026,0.229,0.056,0.342,0.087
	c0.114,0.031,0.229,0.065,0.342,0.102c0.115,0.037,0.229,0.075,0.342,0.116c0.115,0.042,0.229,0.086,0.342,0.132
	c0.115,0.047,0.229,0.097,0.342,0.148c0.115,0.053,0.229,0.107,0.342,0.165c0.115,0.059,0.229,0.12,0.342,0.183
	c0.115,0.065,0.23,0.133,0.342,0.203c0.116,0.072,0.23,0.146,0.342,0.224c0.116,0.079,0.23,0.161,0.342,0.245
	c0.117,0.088,0.23,0.178,0.343,0.271c0.116,0.097,0.23,0.197,0.342,0.3c0.116,0.107,0.231,0.217,0.343,0.33
	c0.117,0.12,0.23,0.243,0.342,0.369c0.117,0.134,0.23,0.271,0.342,0.413c0.118,0.152,0.232,0.309,0.342,0.469
	c0.119,0.176,0.234,0.356,0.342,0.541c0.122,0.209,0.236,0.424,0.342,0.645c0.126,0.262,0.24,0.53,0.342,0.808
	c0.137,0.372,0.252,0.758,0.342,1.156c0.156,0.69,0.241,1.417,0.241,2.177c0,0.762-0.084,1.492-0.241,2.186
	c-0.09,0.398-0.205,0.785-0.342,1.158c-0.102,0.278-0.216,0.548-0.342,0.811c-0.105,0.22-0.22,0.436-0.342,0.645
	c-0.107,0.185-0.223,0.365-0.342,0.541c-0.109,0.16-0.224,0.316-0.342,0.469c-0.111,0.142-0.225,0.279-0.342,0.413
	c-0.111,0.126-0.225,0.249-0.342,0.368c-0.111,0.113-0.227,0.224-0.343,0.33c-0.111,0.104-0.226,0.202-0.342,0.299
	c-0.112,0.093-0.226,0.184-0.343,0.271c-0.111,0.085-0.226,0.166-0.342,0.245c-0.111,0.076-0.227,0.15-0.342,0.222
	c-0.111,0.069-0.227,0.138-0.342,0.202c-0.112,0.062-0.227,0.124-0.342,0.182c-0.113,0.057-0.227,0.111-0.342,0.164
	c-0.113,0.052-0.227,0.101-0.342,0.147c-0.113,0.046-0.227,0.089-0.342,0.13c-0.113,0.041-0.227,0.079-0.342,0.115
	c-0.113,0.035-0.228,0.068-0.342,0.1c-0.113,0.031-0.229,0.06-0.342,0.086l-0.136,0.03c-0.062,0.015-0.132,0.028-0.206,0.042
	c-0.105,0.018-0.221,0.035-0.343,0.053c-0.109,0.015-0.224,0.028-0.342,0.041c-0.112,0.014-0.228,0.024-0.342,0.035
	c-0.114,0.01-0.229,0.02-0.343,0.027c-0.117,0.008-0.232,0.016-0.342,0.021c-0.121,0.006-0.236,0.011-0.342,0.014l-0.184,0.002
	h-0.158h-0.342h-0.342h-0.342h-0.342h-0.343h-0.342h-0.342h-0.343h-0.342h-0.342h-0.342h-0.342h-0.342h-0.342h-0.342h-0.342h-0.342
	h-0.342h-0.343h-0.342h-0.342h-0.343h-0.342h-0.342h-0.342h-0.342h-0.342h-0.342h-0.342h-0.342h-0.343h-0.342h-0.342h-0.343h-0.342
	h-0.342h-0.342h-0.342h-0.342h-0.342h-0.342h-0.342h-0.342h-0.343h-0.342h-0.342h-0.343h-0.342h-0.342h-0.342h-0.342h-0.342h-0.342
	h-0.342h-0.342h-0.342h-0.343h-0.342h-0.342h-0.177V127.146L231.098,127.146z M258.632,105.988c0.138,0.627,0.212,1.292,0.212,1.992
	c0,0.699-0.074,1.363-0.212,1.99c-0.089,0.403-0.203,0.79-0.342,1.161c-0.102,0.271-0.216,0.533-0.342,0.787
	c-0.106,0.212-0.22,0.418-0.343,0.617c-0.107,0.177-0.222,0.348-0.342,0.514c-0.109,0.151-0.223,0.298-0.342,0.441
	c-0.109,0.133-0.224,0.261-0.342,0.386c-0.11,0.118-0.225,0.231-0.342,0.341c-0.111,0.105-0.225,0.207-0.342,0.305
	c-0.111,0.094-0.226,0.185-0.342,0.273c-0.112,0.085-0.227,0.167-0.342,0.246c-0.112,0.077-0.227,0.15-0.342,0.222
	c-0.113,0.069-0.227,0.136-0.342,0.199c-0.113,0.062-0.227,0.123-0.342,0.18c-0.113,0.056-0.228,0.11-0.343,0.161
	c-0.112,0.05-0.228,0.098-0.342,0.143c-0.113,0.044-0.228,0.087-0.342,0.127c-0.113,0.04-0.228,0.077-0.342,0.111
	c-0.114,0.035-0.228,0.067-0.343,0.097c-0.113,0.029-0.227,0.057-0.342,0.082c-0.113,0.025-0.227,0.047-0.342,0.067l-0.082,0.015
	c-0.067,0.012-0.156,0.024-0.26,0.038c-0.102,0.013-0.217,0.026-0.342,0.039c-0.108,0.011-0.224,0.022-0.342,0.032
	c-0.112,0.009-0.227,0.018-0.342,0.025s-0.23,0.014-0.342,0.018c-0.119,0.005-0.234,0.008-0.342,0.009h-0.055h-0.287h-0.343h-0.342
	h-0.342h-0.343h-0.342h-0.342h-0.342h-0.342h-0.342h-0.342h-0.342h-0.342h-0.342h-0.343h-0.342h-0.342h-0.342h-0.343h-0.342h-0.342
	h-0.342h-0.342h-0.342h-0.342h-0.342h-0.342h-0.342h-0.343h-0.342h-0.342h-0.343h-0.342h-0.342h-0.342h-0.342h-0.342h-0.342h-0.342
	h-0.342h-0.342h-0.342h-0.342h-0.343h-0.342h-0.342h-0.343h-0.342h-0.342h-0.342h-0.342h-0.342h-0.342h-0.342h-0.18v-17.25h0.18
	h0.342h0.342h0.342h0.342h0.342h0.342h0.342h0.343h0.342h0.342h0.343h0.342h0.342h0.342h0.342h0.342h0.342h0.342h0.342h0.342h0.342
	h0.342h0.343h0.342h0.342h0.343h0.342h0.342h0.342h0.342h0.342h0.342h0.342h0.342h0.342h0.343h0.342h0.342h0.342h0.343h0.342h0.342
	h0.342h0.342h0.342h0.342h0.342h0.342h0.342h0.343h0.342h0.342h0.343h0.342h0.144l0.198,0.006c0.111,0.004,0.227,0.011,0.342,0.019
	s0.229,0.016,0.342,0.025c0.118,0.01,0.233,0.021,0.342,0.031c0.125,0.012,0.24,0.024,0.342,0.036
	c0.104,0.012,0.192,0.023,0.26,0.033l0.082,0.015c0.115,0.021,0.229,0.043,0.342,0.069c0.115,0.025,0.229,0.053,0.342,0.083
	c0.115,0.03,0.229,0.062,0.343,0.097c0.114,0.035,0.229,0.072,0.342,0.112c0.114,0.04,0.229,0.083,0.342,0.127
	c0.114,0.046,0.229,0.094,0.342,0.144c0.115,0.051,0.229,0.105,0.343,0.161c0.115,0.058,0.229,0.118,0.342,0.18
	c0.115,0.064,0.229,0.131,0.342,0.2c0.115,0.071,0.229,0.145,0.342,0.222c0.115,0.079,0.229,0.162,0.342,0.247
	c0.116,0.088,0.23,0.179,0.342,0.273c0.117,0.099,0.23,0.201,0.342,0.306c0.117,0.11,0.231,0.224,0.342,0.341
	c0.118,0.125,0.232,0.253,0.342,0.386c0.119,0.143,0.232,0.29,0.342,0.441c0.12,0.166,0.234,0.337,0.342,0.514
	c0.123,0.199,0.236,0.405,0.343,0.618c0.126,0.253,0.24,0.516,0.342,0.787C258.429,105.197,258.543,105.585,258.632,105.988z
	 M301.04,16.536h0.141v177.171c0,1.059-0.049,2.105-0.141,3.141c-0.08,0.91-0.194,1.812-0.342,2.701
	c-0.1,0.598-0.213,1.19-0.342,1.777c-0.105,0.479-0.219,0.953-0.342,1.423c-0.107,0.405-0.222,0.809-0.342,1.208
	c-0.109,0.362-0.223,0.723-0.343,1.079c-0.109,0.323-0.224,0.645-0.342,0.964c-0.11,0.297-0.225,0.593-0.343,0.887
	c-0.109,0.275-0.225,0.549-0.342,0.822c-0.111,0.258-0.225,0.514-0.342,0.769c-0.111,0.243-0.225,0.484-0.342,0.724
	c-0.111,0.23-0.226,0.459-0.342,0.686c-0.111,0.217-0.227,0.434-0.342,0.648c-0.111,0.207-0.227,0.411-0.342,0.615
	c-0.113,0.197-0.227,0.394-0.342,0.588c-0.113,0.19-0.227,0.379-0.343,0.566c-0.112,0.184-0.226,0.365-0.343,0.546
	c-0.111,0.175-0.227,0.349-0.342,0.521c-0.111,0.168-0.227,0.334-0.342,0.5c-0.113,0.163-0.227,0.326-0.342,0.486
	c-0.113,0.157-0.227,0.313-0.342,0.469c-0.113,0.151-0.228,0.301-0.342,0.45c-0.113,0.147-0.227,0.294-0.342,0.439
	c-0.113,0.143-0.228,0.284-0.343,0.425c-0.112,0.137-0.228,0.273-0.342,0.409c-0.114,0.134-0.227,0.27-0.343,0.402
	c-0.112,0.13-0.227,0.257-0.342,0.385c-0.112,0.126-0.227,0.252-0.342,0.377c-0.113,0.123-0.227,0.245-0.342,0.367
	c-0.113,0.119-0.228,0.235-0.342,0.354c-0.113,0.116-0.227,0.234-0.342,0.35c-0.113,0.112-0.229,0.223-0.342,0.333
	c-0.114,0.111-0.228,0.222-0.343,0.33c-0.112,0.107-0.228,0.213-0.342,0.318c-0.113,0.104-0.228,0.209-0.343,0.312
	c-0.113,0.102-0.227,0.203-0.342,0.304c-0.113,0.099-0.227,0.197-0.342,0.295c-0.113,0.097-0.227,0.193-0.342,0.289
	c-0.113,0.094-0.228,0.187-0.342,0.279c-0.113,0.092-0.227,0.184-0.342,0.275c-0.113,0.09-0.229,0.177-0.342,0.266
	c-0.114,0.087-0.228,0.175-0.342,0.262c-0.113,0.085-0.229,0.168-0.343,0.252s-0.228,0.168-0.342,0.25
	c-0.113,0.081-0.228,0.16-0.343,0.239c-0.113,0.079-0.227,0.159-0.342,0.237c-0.113,0.077-0.227,0.152-0.342,0.229
	c-0.113,0.075-0.227,0.15-0.342,0.225c-0.113,0.074-0.228,0.146-0.342,0.218c-0.113,0.071-0.228,0.144-0.342,0.214
	c-0.113,0.07-0.228,0.139-0.342,0.207l-0.343,0.203c-0.113,0.065-0.228,0.132-0.342,0.197c-0.113,0.064-0.228,0.128-0.342,0.191
	c-0.114,0.062-0.228,0.127-0.343,0.188c-0.113,0.062-0.227,0.12-0.342,0.181c-0.113,0.061-0.227,0.121-0.342,0.181
	c-0.113,0.058-0.229,0.113-0.342,0.171c-0.113,0.057-0.228,0.113-0.342,0.169c-0.113,0.056-0.229,0.109-0.342,0.163l-0.343,0.16
	l-0.342,0.154c-0.113,0.051-0.228,0.101-0.342,0.15c-0.114,0.049-0.228,0.1-0.342,0.148c-0.114,0.047-0.228,0.092-0.343,0.139
	c-0.113,0.047-0.227,0.095-0.342,0.141c-0.113,0.045-0.228,0.088-0.342,0.131c-0.113,0.045-0.228,0.088-0.342,0.131l-0.342,0.126
	c-0.114,0.041-0.229,0.081-0.342,0.12c-0.115,0.04-0.228,0.082-0.343,0.12c-0.113,0.038-0.228,0.074-0.342,0.111l-0.342,0.11
	c-0.114,0.037-0.228,0.071-0.343,0.105l-0.342,0.102c-0.113,0.034-0.227,0.068-0.342,0.101c-0.113,0.032-0.229,0.062-0.342,0.093
	s-0.228,0.062-0.342,0.092l-0.342,0.087l-0.342,0.083l-0.343,0.082c-0.113,0.025-0.228,0.049-0.342,0.074s-0.228,0.051-0.343,0.074
	l-0.342,0.068l-0.342,0.066c-0.113,0.021-0.228,0.044-0.342,0.064c-0.113,0.02-0.229,0.037-0.342,0.057l-0.342,0.057l-0.342,0.051
	l-0.342,0.048c-0.115,0.016-0.229,0.033-0.343,0.048s-0.228,0.025-0.342,0.039s-0.228,0.027-0.343,0.039
	c-0.113,0.013-0.227,0.025-0.342,0.036c-0.113,0.011-0.228,0.021-0.342,0.03s-0.229,0.021-0.342,0.03s-0.229,0.016-0.342,0.024
	l-0.342,0.021c-0.115,0.006-0.229,0.015-0.342,0.02c-0.114,0.006-0.229,0.01-0.343,0.014l-0.342,0.014l-0.343,0.008
	c-0.113,0.003-0.228,0.003-0.342,0.005l-0.342,0.005h-0.07h-0.271h-0.342h-0.342h-0.342h-0.343h-0.342h-0.343h-0.342h-0.342h-0.342
	h-0.342h-0.342h-0.342h-0.342h-0.343h-0.343h-0.342h-0.342h-0.342h-0.342h-0.342h-0.342h-0.342h-0.343h-0.342h-0.343h-0.342h-0.342
	h-0.342h-0.342h-0.342h-0.342h-0.343h-0.342h-0.343H253.5h-0.342h-0.342h-0.342h-0.342h-0.342h-0.343h-0.342h-0.343h-0.342h-0.342
	h-0.342h-0.342h-0.342h-0.342h-0.342h-0.343h-0.342h-0.343h-0.342h-0.342h-0.342h-0.342h-0.342h-0.342h-0.343h-0.342h-0.342h-0.343
	h-0.342h-0.342h-0.342h-0.342h-0.342h-0.342h-0.343h-0.342h-0.342h-0.343h-0.342h-0.342h-0.342h-0.342h-0.342h-0.342h-0.343h-0.342
	h-0.343h-0.342h-0.342h-0.342h-0.342h-0.342h-0.342h-0.342h-0.343h-0.342h-0.343h-0.342h-0.342h-0.342h-0.342h-0.342h-0.342h-0.343
	h-0.342h-0.343h-0.342h-0.342h-0.342h-0.342h-0.342h-0.342h-0.343h-0.342h-0.343h-0.342h-0.342h-0.342h-0.342h-0.342h-0.342h-0.342
	h-0.343h-0.343h-0.342h-0.342h-0.342h-0.342h-0.342h-0.342h-0.342h-0.343h-0.342h-0.343h-0.342h-0.342h-0.342h-0.342h-0.342h-0.342
	h-0.343h-0.342h-0.343h-0.342h-0.342h-0.342h-0.342h-0.342h-0.342h-0.343h-0.342h-0.343h-0.342h-0.342h-0.737v-72.238h0.737h0.342
	h0.342h0.343h0.342h0.343h0.342h0.342h0.342h0.342h0.342h0.342h0.343h0.342h0.343h0.342h0.342h0.342h0.342h0.342h0.342h0.343h0.342
	h0.343h0.342h0.342h0.342h0.342h0.342h0.342h0.342h0.343h0.343h0.342h0.342h0.342h0.342h0.342h0.342h0.342h0.343h0.342h0.343h0.342
	h0.342h0.342h0.342h0.342h0.342h0.343h0.342h0.343h0.342h0.342h0.342h0.342h0.342h0.342h0.343h0.342h0.343h0.342h0.342h0.342h0.342
	h0.342h0.342h0.342h0.343h0.342h0.343h0.342h0.342h0.342h0.342h0.342h0.342h0.343h0.342h0.342h0.343h0.342h0.342h0.342h0.342h0.342
	h0.342h0.343h0.342h0.342h0.343h0.342h0.342h0.342h0.342h0.342h0.342h0.343h0.342h0.343h0.342h0.342h0.342h0.342h0.342h0.342h0.342
	h0.343h0.342h0.343h0.342h0.342h0.342h0.342h0.342h0.342h0.343h0.342h0.343h0.342h0.342h0.342h0.342h0.342h0.342h0.343h0.342h0.343
	h0.342h0.342h0.342h0.342h0.342h0.342h0.342h0.343h0.343h0.342h0.342h0.342h0.342h0.342h0.342h0.342h0.343h0.342h0.343h0.342h0.342
	h0.342h0.342h0.342h0.342h0.343h0.342h0.343h0.342h0.342h0.342h0.182l0.16-0.002l0.342-0.002l0.342-0.008
	c0.115-0.003,0.229-0.004,0.343-0.008s0.228-0.01,0.342-0.016l0.343-0.016l0.342-0.021l0.342-0.023l0.342-0.026l0.342-0.031
	c0.113-0.012,0.229-0.021,0.342-0.033c0.115-0.012,0.229-0.025,0.342-0.039l0.342-0.042c0.115-0.015,0.229-0.028,0.343-0.044
	c0.114-0.017,0.228-0.034,0.342-0.051c0.114-0.018,0.229-0.035,0.343-0.053l0.342-0.058l0.342-0.062
	c0.113-0.021,0.229-0.042,0.342-0.064c0.115-0.023,0.229-0.047,0.342-0.07l0.342-0.074c0.115-0.025,0.229-0.051,0.342-0.078
	c0.115-0.027,0.229-0.056,0.343-0.084s0.229-0.057,0.342-0.087c0.114-0.03,0.229-0.061,0.342-0.092
	c0.114-0.031,0.229-0.064,0.343-0.098c0.113-0.033,0.229-0.067,0.342-0.102l0.342-0.106c0.115-0.037,0.229-0.075,0.342-0.113
	c0.115-0.039,0.229-0.077,0.342-0.117c0.115-0.04,0.229-0.08,0.342-0.122c0.115-0.042,0.229-0.087,0.343-0.13
	c0.114-0.045,0.228-0.09,0.342-0.135c0.114-0.047,0.229-0.092,0.342-0.14c0.114-0.048,0.229-0.098,0.342-0.147
	c0.115-0.051,0.229-0.102,0.343-0.154c0.114-0.053,0.229-0.105,0.342-0.16c0.114-0.055,0.229-0.109,0.342-0.166
	c0.115-0.058,0.229-0.116,0.342-0.176c0.115-0.06,0.229-0.121,0.342-0.183c0.115-0.062,0.229-0.126,0.342-0.19
	c0.115-0.064,0.23-0.131,0.343-0.198c0.114-0.068,0.229-0.137,0.342-0.206c0.115-0.072,0.229-0.145,0.342-0.219
	c0.116-0.074,0.229-0.15,0.343-0.227c0.115-0.078,0.229-0.158,0.342-0.238c0.115-0.082,0.229-0.164,0.342-0.248
	c0.115-0.086,0.229-0.173,0.342-0.261c0.115-0.09,0.229-0.181,0.342-0.272c0.115-0.095,0.229-0.19,0.342-0.287
	c0.116-0.1,0.23-0.2,0.342-0.302c0.116-0.104,0.23-0.211,0.343-0.318c0.116-0.11,0.229-0.222,0.342-0.336
	c0.116-0.117,0.229-0.235,0.343-0.356c0.115-0.123,0.229-0.25,0.342-0.377c0.115-0.133,0.23-0.267,0.342-0.402
	c0.116-0.141,0.23-0.284,0.342-0.43c0.116-0.151,0.231-0.305,0.342-0.46c0.117-0.165,0.23-0.333,0.342-0.503
	c0.118-0.18,0.232-0.361,0.342-0.546c0.119-0.198,0.232-0.399,0.342-0.603c0.119-0.222,0.234-0.445,0.343-0.673
	c0.121-0.255,0.235-0.513,0.342-0.774c0.123-0.301,0.237-0.605,0.343-0.916c0.129-0.382,0.242-0.771,0.342-1.168
	c0.146-0.58,0.26-1.175,0.342-1.784c0.1-0.739,0.151-1.499,0.151-2.28c0-0.761-0.052-1.5-0.151-2.217
	c-0.082-0.59-0.197-1.164-0.342-1.723c-0.1-0.382-0.215-0.756-0.342-1.123c-0.105-0.301-0.219-0.597-0.343-0.888
	c-0.106-0.252-0.222-0.5-0.342-0.745c-0.108-0.219-0.223-0.436-0.343-0.65c-0.109-0.196-0.223-0.391-0.342-0.582
	c-0.109-0.178-0.224-0.354-0.342-0.525c-0.11-0.164-0.225-0.326-0.342-0.484c-0.11-0.15-0.225-0.299-0.342-0.445
	c-0.111-0.14-0.226-0.277-0.342-0.414c-0.112-0.131-0.226-0.261-0.342-0.389c-0.112-0.123-0.227-0.244-0.342-0.365
	c-0.112-0.115-0.227-0.229-0.343-0.342c-0.112-0.109-0.227-0.217-0.342-0.324c-0.112-0.104-0.227-0.205-0.343-0.307
	c-0.111-0.098-0.226-0.195-0.342-0.291c-0.112-0.094-0.227-0.186-0.342-0.277c-0.112-0.089-0.227-0.177-0.342-0.264
	c-0.113-0.085-0.227-0.169-0.342-0.252c-0.113-0.081-0.227-0.161-0.342-0.24c-0.113-0.077-0.227-0.154-0.342-0.23
	c-0.113-0.074-0.228-0.146-0.343-0.219c-0.112-0.071-0.227-0.142-0.342-0.211c-0.112-0.068-0.228-0.135-0.342-0.201
	c-0.113-0.064-0.228-0.129-0.343-0.191c-0.112-0.062-0.227-0.124-0.342-0.184c-0.113-0.061-0.227-0.119-0.342-0.178
	c-0.113-0.057-0.227-0.114-0.342-0.17c-0.113-0.055-0.227-0.109-0.342-0.164c-0.113-0.053-0.228-0.104-0.342-0.154
	c-0.113-0.051-0.228-0.1-0.343-0.149c-0.113-0.048-0.228-0.096-0.342-0.144c-0.113-0.046-0.228-0.092-0.342-0.138
	c-0.114-0.044-0.228-0.089-0.342-0.132c-0.114-0.042-0.228-0.083-0.343-0.125c-0.113-0.041-0.227-0.08-0.342-0.119
	c-0.113-0.039-0.227-0.078-0.342-0.117c-0.113-0.037-0.228-0.073-0.342-0.109c-0.113-0.035-0.229-0.07-0.342-0.104l-0.342-0.101
	c-0.114-0.032-0.229-0.065-0.343-0.096c-0.113-0.031-0.228-0.061-0.342-0.09c-0.113-0.029-0.228-0.058-0.342-0.086
	s-0.228-0.056-0.343-0.083c-0.113-0.027-0.227-0.052-0.342-0.078c-0.113-0.025-0.227-0.049-0.342-0.073
	c-0.113-0.023-0.227-0.047-0.342-0.07l-0.342-0.065l-0.342-0.061c-0.114-0.02-0.229-0.04-0.342-0.058l-0.343-0.054
	c-0.113-0.018-0.228-0.034-0.342-0.049l-0.343-0.047l-0.342-0.043l-0.342-0.039l-0.342-0.036l-0.342-0.032l-0.342-0.029
	l-0.316-0.024v-0.41l0.316-0.049l0.342-0.056c0.114-0.02,0.229-0.039,0.342-0.06l0.342-0.065c0.115-0.023,0.229-0.046,0.342-0.07
	l0.342-0.075c0.115-0.026,0.229-0.052,0.343-0.079c0.114-0.028,0.229-0.057,0.343-0.085c0.114-0.029,0.228-0.06,0.342-0.09
	c0.113-0.031,0.229-0.063,0.342-0.096c0.114-0.033,0.229-0.066,0.342-0.101c0.114-0.034,0.229-0.07,0.342-0.106
	c0.115-0.037,0.229-0.075,0.342-0.113c0.115-0.039,0.229-0.079,0.342-0.119c0.115-0.041,0.229-0.083,0.342-0.125
	c0.115-0.043,0.229-0.086,0.343-0.131c0.114-0.045,0.229-0.091,0.342-0.138c0.114-0.048,0.229-0.096,0.343-0.146
	c0.114-0.05,0.229-0.101,0.342-0.153c0.114-0.052,0.229-0.106,0.342-0.161c0.115-0.055,0.229-0.112,0.342-0.169
	c0.115-0.058,0.229-0.117,0.342-0.177c0.115-0.061,0.229-0.123,0.342-0.186c0.115-0.064,0.229-0.129,0.342-0.195
	c0.115-0.067,0.23-0.135,0.343-0.205c0.115-0.071,0.229-0.142,0.342-0.215c0.115-0.074,0.229-0.149,0.342-0.226
	c0.116-0.078,0.229-0.157,0.343-0.237c0.115-0.082,0.229-0.165,0.342-0.25c0.115-0.086,0.229-0.174,0.342-0.263
	c0.115-0.091,0.229-0.183,0.342-0.276c0.115-0.096,0.229-0.194,0.342-0.293c0.116-0.102,0.23-0.206,0.342-0.31
	c0.116-0.108,0.23-0.218,0.342-0.328c0.117-0.115,0.23-0.23,0.343-0.347c0.116-0.123,0.23-0.246,0.342-0.372
	c0.116-0.13,0.23-0.263,0.342-0.396c0.117-0.14,0.231-0.281,0.343-0.424c0.117-0.151,0.23-0.304,0.342-0.459
	c0.117-0.164,0.23-0.33,0.342-0.498c0.117-0.179,0.232-0.36,0.342-0.543c0.119-0.199,0.232-0.399,0.342-0.603
	c0.12-0.224,0.234-0.45,0.342-0.678c0.122-0.258,0.236-0.519,0.342-0.782c0.125-0.308,0.238-0.619,0.343-0.935
	c0.13-0.396,0.245-0.799,0.342-1.208c0.158-0.663,0.272-1.338,0.343-2.026c0.055-0.543,0.084-1.093,0.084-1.648
	c0-0.586-0.029-1.158-0.084-1.716c-0.071-0.712-0.186-1.401-0.343-2.065c-0.098-0.415-0.212-0.821-0.342-1.216
	c-0.104-0.316-0.218-0.627-0.343-0.932c-0.105-0.262-0.221-0.52-0.342-0.772c-0.107-0.226-0.223-0.448-0.342-0.666
	c-0.109-0.2-0.223-0.396-0.342-0.59c-0.11-0.18-0.225-0.357-0.342-0.532c-0.111-0.164-0.225-0.324-0.342-0.483
	c-0.111-0.15-0.225-0.299-0.342-0.445c-0.112-0.139-0.226-0.277-0.343-0.413c-0.111-0.129-0.226-0.256-0.342-0.381
	c-0.111-0.121-0.226-0.24-0.342-0.357c-0.112-0.113-0.226-0.225-0.343-0.335c-0.111-0.107-0.226-0.212-0.342-0.316
	c-0.111-0.101-0.227-0.2-0.342-0.298c-0.112-0.095-0.227-0.189-0.342-0.282c-0.113-0.09-0.227-0.18-0.342-0.267
	c-0.113-0.085-0.227-0.17-0.342-0.253c-0.113-0.081-0.227-0.161-0.342-0.24c-0.113-0.077-0.227-0.153-0.343-0.228
	c-0.112-0.074-0.228-0.146-0.342-0.218c-0.112-0.07-0.228-0.139-0.342-0.207c-0.113-0.067-0.228-0.133-0.343-0.198
	c-0.112-0.063-0.227-0.126-0.342-0.188c-0.113-0.061-0.227-0.12-0.342-0.18c-0.113-0.058-0.227-0.115-0.342-0.172
	c-0.113-0.055-0.227-0.111-0.342-0.164c-0.113-0.053-0.228-0.105-0.342-0.157c-0.113-0.05-0.228-0.099-0.342-0.148
	c-0.113-0.048-0.229-0.096-0.343-0.143c-0.113-0.046-0.228-0.091-0.342-0.136c-0.114-0.044-0.228-0.087-0.343-0.13
	c-0.113-0.042-0.227-0.083-0.342-0.124c-0.113-0.04-0.227-0.079-0.342-0.117c-0.113-0.038-0.227-0.075-0.342-0.112
	c-0.113-0.036-0.227-0.072-0.342-0.107c-0.113-0.034-0.228-0.069-0.342-0.102c-0.113-0.033-0.229-0.064-0.342-0.095
	c-0.114-0.031-0.229-0.062-0.342-0.091l-0.343-0.087c-0.114-0.028-0.228-0.055-0.343-0.082c-0.113-0.026-0.227-0.052-0.342-0.077
	l-0.342-0.073c-0.113-0.023-0.227-0.047-0.342-0.069c-0.113-0.022-0.229-0.042-0.342-0.063l-0.342-0.06
	c-0.113-0.019-0.228-0.039-0.342-0.057l-0.342-0.052l-0.343-0.048l-0.342-0.045l-0.343-0.041l-0.342-0.037l-0.342-0.034l-0.342-0.03
	l-0.342-0.026l-0.342-0.024l-0.342-0.02l-0.137-0.007l-0.206-0.013l-0.342-0.02l-0.343-0.019l-0.342-0.018l-0.342-0.017
	l-0.342-0.015l-0.342-0.013l-0.342-0.01l-0.342-0.008l-0.343-0.004l-0.188,0h-0.153h-0.343h-0.342h-0.342h-0.342h-0.342h-0.342
	h-0.342h-0.342h-0.343h-0.343h-0.342h-0.342h-0.342h-0.342h-0.342h-0.342h-0.342h-0.343h-0.342h-0.343h-0.342h-0.342h-0.342h-0.342
	h-0.342h-0.342h-0.343h-0.342h-0.343H253.5h-0.342h-0.342h-0.342h-0.342h-0.342h-0.343h-0.342h-0.342h-0.343h-0.342h-0.342h-0.342
	h-0.342h-0.342h-0.342h-0.343h-0.342h-0.342h-0.343h-0.342h-0.342h-0.342h-0.342h-0.342h-0.342h-0.343h-0.342h-0.342h-0.343h-0.342
	h-0.342h-0.342h-0.342h-0.342h-0.342h-0.343h-0.342h-0.343h-0.342h-0.342h-0.342h-0.342h-0.342h-0.342h-0.343h-0.342h-0.343h-0.342
	h-0.342h-0.342h-0.342h-0.342h-0.342h-0.342h-0.343h-0.342h-0.343h-0.342h-0.342h-0.342h-0.342h-0.342h-0.342h-0.343h-0.342h-0.343
	h-0.342h-0.342h-0.342h-0.342h-0.342h-0.342h-0.343h-0.342h-0.343h-0.342h-0.342h-0.342h-0.342h-0.342h-0.342h-0.342h-0.343h-0.343
	h-0.342h-0.342h-0.342h-0.342h-0.342h-0.342h-0.342h-0.343h-0.342h-0.343h-0.342h-0.342h-0.342h-0.342h-0.342h-0.342h-0.343h-0.342
	h-0.343h-0.342h-0.342h-0.342h-0.342h-0.342h-0.342h-0.343h-0.342h-0.342h-0.343h-0.342h-0.737V51.973
	c0-2.476,0.255-4.891,0.737-7.224c0.104-0.5,0.219-0.995,0.342-1.486c0.107-0.42,0.222-0.838,0.343-1.252
	c0.108-0.37,0.222-0.737,0.342-1.102c0.109-0.333,0.224-0.665,0.342-0.994c0.11-0.305,0.224-0.608,0.343-0.909
	c0.11-0.281,0.225-0.561,0.342-0.839c0.111-0.262,0.225-0.522,0.342-0.781c0.111-0.246,0.226-0.49,0.342-0.732
	c0.111-0.232,0.227-0.461,0.342-0.69c0.111-0.22,0.227-0.438,0.342-0.656c0.112-0.209,0.227-0.417,0.342-0.625
	c0.113-0.201,0.227-0.399,0.343-0.598c0.112-0.192,0.226-0.383,0.342-0.573c0.112-0.184,0.227-0.366,0.343-0.548
	c0.111-0.176,0.227-0.351,0.342-0.524c0.112-0.17,0.227-0.34,0.342-0.508c0.113-0.165,0.226-0.329,0.342-0.492
	c0.112-0.157,0.227-0.313,0.342-0.469c0.113-0.153,0.228-0.305,0.342-0.456c0.113-0.149,0.227-0.298,0.342-0.445
	c0.113-0.143,0.229-0.284,0.343-0.425c0.112-0.139,0.228-0.277,0.342-0.415c0.113-0.135,0.228-0.271,0.343-0.405
	c0.111-0.13,0.227-0.258,0.342-0.387c0.113-0.127,0.227-0.255,0.342-0.381c0.113-0.124,0.227-0.246,0.342-0.368
	c0.113-0.12,0.227-0.239,0.342-0.358c0.113-0.117,0.227-0.234,0.342-0.35c0.113-0.114,0.229-0.226,0.342-0.337
	c0.114-0.112,0.227-0.224,0.342-0.334c0.113-0.107,0.229-0.212,0.343-0.318c0.114-0.105,0.228-0.211,0.343-0.315
	c0.112-0.103,0.227-0.203,0.342-0.303c0.113-0.1,0.227-0.2,0.342-0.299c0.113-0.097,0.227-0.193,0.342-0.289
	c0.113-0.095,0.227-0.189,0.342-0.283c0.113-0.093,0.228-0.184,0.342-0.275l0.342-0.269l0.342-0.262
	c0.114-0.086,0.229-0.171,0.343-0.255c0.113-0.084,0.228-0.167,0.342-0.25l0.343-0.243c0.113-0.08,0.227-0.159,0.342-0.237
	l0.342-0.231l0.342-0.226c0.113-0.074,0.228-0.147,0.342-0.22l0.342-0.214c0.114-0.07,0.229-0.141,0.342-0.21
	c0.113-0.068,0.229-0.135,0.343-0.202s0.228-0.135,0.342-0.201c0.113-0.065,0.228-0.127,0.343-0.191
	c0.113-0.064,0.227-0.128,0.342-0.191c0.113-0.062,0.228-0.121,0.342-0.182c0.113-0.061,0.227-0.121,0.342-0.18
	c0.113-0.059,0.228-0.116,0.342-0.173c0.113-0.057,0.228-0.114,0.342-0.17l0.342-0.165c0.114-0.054,0.229-0.107,0.343-0.16
	s0.228-0.106,0.342-0.158c0.113-0.051,0.228-0.1,0.343-0.149c0.113-0.05,0.227-0.101,0.342-0.149
	c0.113-0.048,0.228-0.094,0.342-0.141c0.113-0.047,0.227-0.094,0.342-0.14l0.342-0.135l0.342-0.13
	c0.114-0.043,0.228-0.086,0.342-0.128c0.113-0.041,0.229-0.08,0.342-0.12c0.115-0.041,0.229-0.082,0.343-0.121
	c0.113-0.039,0.228-0.076,0.342-0.113l0.343-0.111c0.113-0.036,0.227-0.073,0.342-0.108c0.113-0.035,0.228-0.068,0.342-0.102
	c0.113-0.034,0.227-0.069,0.342-0.102c0.113-0.032,0.229-0.062,0.342-0.094c0.114-0.031,0.228-0.062,0.342-0.093l0.342-0.088
	c0.114-0.028,0.229-0.056,0.343-0.083c0.114-0.028,0.228-0.057,0.342-0.083c0.113-0.026,0.228-0.05,0.343-0.075l0.342-0.075
	l0.342-0.07c0.113-0.023,0.228-0.044,0.342-0.065c0.113-0.022,0.228-0.045,0.342-0.066c0.113-0.021,0.229-0.038,0.342-0.058
	l0.342-0.057c0.114-0.018,0.229-0.037,0.343-0.054c0.113-0.017,0.228-0.032,0.342-0.048c0.114-0.016,0.228-0.033,0.342-0.048
	c0.114-0.015,0.228-0.028,0.343-0.042l0.342-0.039c0.113-0.013,0.227-0.026,0.342-0.038c0.113-0.011,0.229-0.02,0.342-0.03
	l0.342-0.03l0.342-0.026c0.114-0.008,0.229-0.015,0.342-0.021c0.114-0.007,0.229-0.016,0.343-0.021
	c0.113-0.006,0.228-0.009,0.342-0.014l0.342-0.013c0.114-0.004,0.228-0.009,0.343-0.011c0.113-0.002,0.228-0.003,0.342-0.004
	c0.113-0.002,0.228-0.004,0.342-0.004l0.086-0.001h0.256h0.342h0.342h0.342h0.343h0.342h0.342h0.343h0.342h0.342h0.342h0.342h0.342
	h0.342h0.343h0.342h0.343h0.342h0.342h0.342h0.342h0.342h0.342h0.343h0.342h0.343h0.342h0.342h0.342h0.342h0.342h0.342h0.342h0.343
	h0.343h0.342h0.342h0.342h0.342h0.342h0.342h0.342h0.343h0.342h0.343h0.342h0.342h0.342h0.342h0.342h0.342h0.343h0.342h0.343h0.342
	h0.342h0.342h0.342h0.342h0.342h0.343h0.342h0.343h0.342h0.342h0.342h0.342h0.342h0.342h0.342h0.343h0.343h0.342h0.342h0.342h0.342
	h0.342h0.342h0.342h0.343h0.342h0.343h0.342h0.342h0.342h0.342h0.342h0.342h0.343h0.342h0.342h0.343h0.342h0.342h0.342h0.342h0.342
	h0.342h0.343h0.342h0.342h0.343h0.342h0.342h0.342h0.342h0.342h0.342h0.343h0.342h0.343h0.342h0.342h0.342h0.342h0.342h0.342h0.342
	h0.343h0.342h0.343h0.342h0.342h0.342h0.342h0.342h0.342h0.343h0.342h0.343h0.342h0.342h0.342h0.342h0.342h0.342h0.343h0.343h0.342
	h0.342h0.342h0.342h0.342h0.342h0.342h0.343h0.342h0.343h0.342h0.342h0.342H301.04L301.04,16.536L301.04,16.536z"/>
<linearGradient id="SVGID_2_" gradientUnits="userSpaceOnUse" x1="-132.2808" y1="333.8145" x2="-101.4482" y2="333.8145" gradientTransform="matrix(2.8346 0 0 -2.8346 392.6821 1069.0831)">
	<stop  offset="0" style="stop-color:#1D2970"/>
	<stop  offset="1" style="stop-color:#006DBA"/>
</linearGradient>
<path fill="url(#SVGID_2_)" d="M18.448,139.836c-0.245-0.117-0.489-0.234-0.733-0.352V51.973c0-2.469,0.253-4.878,0.733-7.204
	c0.103-0.5,0.218-0.995,0.341-1.486c0.106-0.421,0.22-0.839,0.341-1.253c0.108-0.37,0.222-0.736,0.341-1.101
	c0.109-0.333,0.223-0.666,0.342-0.995c0.11-0.305,0.223-0.608,0.341-0.908c0.11-0.281,0.224-0.562,0.341-0.84
	c0.111-0.262,0.225-0.522,0.341-0.78c0.111-0.246,0.225-0.49,0.341-0.732c0.111-0.232,0.226-0.462,0.342-0.691
	c0.111-0.22,0.225-0.438,0.341-0.655c0.112-0.209,0.226-0.417,0.341-0.625c0.112-0.201,0.226-0.4,0.341-0.598
	c0.112-0.192,0.226-0.384,0.341-0.574c0.112-0.184,0.227-0.366,0.342-0.547c0.112-0.176,0.227-0.351,0.341-0.524
	c0.112-0.17,0.226-0.339,0.341-0.507c0.113-0.165,0.226-0.33,0.341-0.493c0.112-0.157,0.227-0.312,0.341-0.468
	c0.113-0.153,0.227-0.305,0.342-0.456c0.113-0.149,0.226-0.298,0.341-0.445c0.112-0.143,0.227-0.283,0.341-0.424
	c0.113-0.139,0.227-0.278,0.341-0.415c0.113-0.135,0.227-0.27,0.341-0.404c0.113-0.131,0.227-0.259,0.342-0.388
	c0.113-0.127,0.226-0.255,0.341-0.381c0.112-0.124,0.227-0.245,0.341-0.367c0.113-0.121,0.227-0.24,0.341-0.358
	c0.113-0.117,0.227-0.234,0.341-0.35c0.113-0.114,0.228-0.226,0.342-0.337c0.114-0.111,0.226-0.224,0.341-0.333
	c0.112-0.107,0.227-0.212,0.341-0.318c0.114-0.105,0.227-0.211,0.341-0.316c0.113-0.102,0.228-0.202,0.341-0.303
	c0.114-0.1,0.227-0.2,0.342-0.299c0.113-0.097,0.227-0.193,0.341-0.289c0.113-0.095,0.227-0.19,0.341-0.284
	c0.113-0.092,0.227-0.184,0.341-0.275c0.113-0.09,0.227-0.18,0.341-0.269c0.113-0.088,0.228-0.175,0.342-0.262
	c0.113-0.085,0.227-0.171,0.341-0.256l0.341-0.249c0.113-0.082,0.227-0.164,0.341-0.244c0.113-0.08,0.227-0.158,0.341-0.236
	c0.113-0.078,0.227-0.156,0.341-0.232c0.113-0.076,0.228-0.15,0.342-0.225c0.113-0.074,0.227-0.148,0.341-0.221
	c0.113-0.072,0.227-0.143,0.341-0.213c0.114-0.07,0.227-0.142,0.341-0.211c0.113-0.068,0.228-0.135,0.341-0.202
	c0.114-0.067,0.227-0.135,0.342-0.201c0.113-0.065,0.228-0.127,0.341-0.191s0.227-0.128,0.341-0.191
	c0.113-0.062,0.228-0.122,0.341-0.182c0.114-0.061,0.227-0.121,0.341-0.181c0.113-0.059,0.228-0.116,0.342-0.174l0.341-0.169
	c0.113-0.056,0.227-0.112,0.341-0.166c0.113-0.054,0.228-0.106,0.341-0.16c0.114-0.053,0.227-0.107,0.341-0.159
	c0.113-0.051,0.228-0.1,0.342-0.149c0.113-0.05,0.227-0.101,0.341-0.149c0.113-0.048,0.228-0.095,0.341-0.142l0.341-0.14
	l0.341-0.135l0.342-0.13c0.114-0.043,0.227-0.087,0.341-0.129c0.113-0.042,0.228-0.08,0.341-0.121
	c0.114-0.04,0.227-0.081,0.341-0.12l0.341-0.114l0.342-0.11c0.113-0.037,0.227-0.074,0.341-0.109
	c0.113-0.035,0.228-0.068,0.341-0.102c0.114-0.034,0.227-0.069,0.341-0.102c0.113-0.033,0.228-0.063,0.341-0.094l0.342-0.093
	c0.113-0.03,0.227-0.061,0.341-0.09c0.113-0.029,0.228-0.055,0.341-0.083c0.113-0.028,0.227-0.057,0.341-0.083
	c0.113-0.026,0.228-0.051,0.341-0.077l0.342-0.074c0.113-0.024,0.227-0.049,0.341-0.072c0.113-0.023,0.228-0.044,0.341-0.065
	c0.114-0.022,0.227-0.045,0.341-0.065c0.114-0.021,0.228-0.039,0.341-0.059l0.342-0.057c0.113-0.018,0.227-0.038,0.341-0.055
	c0.113-0.018,0.228-0.032,0.341-0.048c0.113-0.016,0.227-0.033,0.341-0.048l0.341-0.042l0.342-0.039
	c0.114-0.013,0.227-0.027,0.341-0.039c0.113-0.012,0.228-0.02,0.341-0.031l0.341-0.03c0.114-0.01,0.228-0.019,0.341-0.027
	s0.228-0.015,0.342-0.022c0.114-0.007,0.227-0.015,0.341-0.021c0.113-0.006,0.227-0.01,0.341-0.016l0.342-0.013
	c0.114-0.004,0.227-0.01,0.341-0.013c0.113-0.003,0.228-0.003,0.341-0.004c0.114-0.002,0.228-0.004,0.341-0.004l0.152-0.002h0.189
	h0.342h0.341h0.341h0.341h0.341h0.342h0.341h0.341h0.341h0.341h0.342h0.341h0.341h0.341h0.341h0.342h0.341h0.341h0.341h0.341h0.342
	h0.341h0.341h0.341h0.341h0.342h0.341h0.341h0.341h0.341h0.342h0.341h0.341h0.341h0.341h0.341h0.342h0.341h0.341h0.341h0.341h0.342
	h0.341h0.341h0.341h0.341h0.342h0.341H70h0.341h0.341h0.342h0.341h0.341h0.341h0.341h0.342h0.341h0.341h0.341h0.341h0.342h0.341
	h0.341h0.341h0.341h0.342h0.341h0.341h0.341h0.341h0.342h0.341h0.341h0.341h0.341h0.342h0.341h0.341h0.341h0.341h0.342h0.341h0.341
	h0.341h0.341h0.341h0.342h0.341h0.341h0.341h0.342h0.341h0.341h0.341h0.341h0.342h0.341h0.341h0.341h0.341h0.341h0.342h0.341h0.341
	h0.341h0.342h0.341h0.341h0.341h0.341h0.341h0.342h0.341h0.341h0.341h0.341h0.341h0.341h0.341h0.342h0.341h0.341h0.341h0.342h0.341
	h0.341h0.341h0.341h0.341h0.342h0.341h0.341h0.341h0.341h0.342h0.341h0.341h0.341h0.341h0.342h0.341h0.341h0.341h0.341h0.342h0.341
	h0.341h0.341h0.341h0.342h0.29v177.171c0,1.541-0.099,3.06-0.29,4.549c-0.092,0.717-0.208,1.427-0.342,2.129
	c-0.102,0.535-0.215,1.066-0.341,1.592c-0.106,0.443-0.219,0.883-0.341,1.319c-0.107,0.383-0.222,0.763-0.341,1.141
	c-0.109,0.342-0.223,0.681-0.341,1.019c-0.11,0.312-0.224,0.622-0.342,0.93c-0.11,0.289-0.224,0.574-0.341,0.858
	c-0.11,0.267-0.225,0.533-0.341,0.797c-0.111,0.251-0.225,0.5-0.341,0.747c-0.111,0.236-0.225,0.471-0.341,0.704
	c-0.112,0.224-0.226,0.446-0.342,0.668c-0.111,0.213-0.225,0.425-0.341,0.635c-0.112,0.204-0.225,0.406-0.341,0.606
	c-0.112,0.194-0.226,0.387-0.341,0.579c-0.112,0.185-0.226,0.368-0.341,0.552c-0.112,0.179-0.226,0.356-0.342,0.533
	c-0.113,0.173-0.226,0.345-0.341,0.516c-0.112,0.165-0.226,0.329-0.341,0.492c-0.112,0.16-0.226,0.318-0.341,0.476
	c-0.113,0.155-0.226,0.31-0.341,0.463c-0.113,0.149-0.227,0.298-0.342,0.446c-0.112,0.145-0.227,0.287-0.341,0.43
	c-0.113,0.141-0.226,0.281-0.341,0.42c-0.112,0.137-0.227,0.27-0.341,0.404c-0.113,0.132-0.227,0.264-0.341,0.394
	c-0.113,0.128-0.226,0.258-0.341,0.385c-0.113,0.124-0.228,0.246-0.342,0.369c-0.113,0.121-0.226,0.243-0.341,0.363
	c-0.113,0.118-0.227,0.233-0.341,0.35c-0.113,0.114-0.227,0.229-0.341,0.343c-0.113,0.111-0.227,0.223-0.342,0.333
	c-0.113,0.108-0.227,0.216-0.341,0.323c-0.113,0.105-0.226,0.213-0.341,0.317c-0.113,0.103-0.227,0.204-0.341,0.306
	c-0.114,0.101-0.226,0.203-0.341,0.303c-0.112,0.098-0.228,0.192-0.341,0.289c-0.114,0.096-0.227,0.192-0.341,0.287
	c-0.113,0.093-0.228,0.184-0.341,0.275s-0.227,0.184-0.342,0.273c-0.113,0.088-0.228,0.174-0.341,0.262
	c-0.114,0.086-0.227,0.174-0.341,0.259c-0.113,0.085-0.228,0.167-0.341,0.249c-0.114,0.083-0.227,0.166-0.341,0.248
	c-0.113,0.079-0.228,0.158-0.341,0.236c-0.114,0.078-0.227,0.158-0.342,0.236c-0.113,0.075-0.228,0.149-0.341,0.225
	c-0.114,0.074-0.227,0.15-0.341,0.225c-0.113,0.072-0.228,0.142-0.341,0.213c-0.114,0.07-0.227,0.143-0.342,0.213
	c-0.113,0.068-0.228,0.136-0.341,0.203s-0.227,0.136-0.341,0.202c-0.113,0.065-0.227,0.13-0.341,0.194
	c-0.114,0.063-0.227,0.127-0.341,0.189c-0.114,0.062-0.227,0.125-0.341,0.186l-0.342,0.181c-0.114,0.06-0.227,0.118-0.341,0.177
	c-0.113,0.057-0.227,0.113-0.341,0.17c-0.114,0.056-0.227,0.113-0.341,0.168c-0.113,0.055-0.228,0.107-0.341,0.16
	c-0.114,0.053-0.227,0.107-0.342,0.16c-0.113,0.051-0.228,0.1-0.341,0.15l-0.341,0.149l-0.341,0.146
	c-0.114,0.047-0.228,0.093-0.342,0.139c-0.114,0.047-0.227,0.094-0.341,0.139c-0.113,0.045-0.227,0.086-0.341,0.13
	c-0.114,0.043-0.227,0.087-0.341,0.13c-0.114,0.041-0.228,0.082-0.341,0.123l-0.341,0.119l-0.342,0.117
	c-0.113,0.038-0.228,0.074-0.341,0.111s-0.227,0.074-0.341,0.11c-0.113,0.036-0.228,0.068-0.341,0.103l-0.341,0.102l-0.342,0.098
	c-0.113,0.031-0.227,0.062-0.341,0.092c-0.114,0.031-0.227,0.062-0.341,0.092c-0.113,0.029-0.228,0.056-0.341,0.084
	c-0.114,0.027-0.228,0.057-0.341,0.083l-0.342,0.079l-0.341,0.074c-0.114,0.024-0.227,0.051-0.341,0.074
	c-0.114,0.023-0.228,0.043-0.341,0.065s-0.228,0.044-0.341,0.065l-0.342,0.062c-0.113,0.021-0.227,0.038-0.341,0.057
	c-0.114,0.019-0.227,0.039-0.341,0.057c-0.113,0.018-0.228,0.032-0.341,0.049l-0.341,0.048c-0.114,0.016-0.228,0.031-0.342,0.045
	c-0.113,0.014-0.228,0.026-0.341,0.039c-0.114,0.014-0.227,0.027-0.341,0.039c-0.114,0.012-0.228,0.022-0.341,0.033l-0.341,0.03
	c-0.114,0.01-0.228,0.021-0.342,0.03c-0.113,0.008-0.228,0.014-0.341,0.021l-0.341,0.021l-0.341,0.018
	c-0.113,0.006-0.228,0.01-0.341,0.014c-0.114,0.004-0.228,0.01-0.342,0.013c-0.113,0.003-0.228,0.005-0.341,0.007L70,229.137
	c-0.105,0.001-0.21,0.004-0.316,0.004h-0.025h-0.341h-0.342h-0.341h-0.341h-0.341H67.61h-0.342h-0.341h-0.341h-0.341h-0.341h-0.342
	H65.22h-0.341h-0.341h-0.341h-0.341h-0.342h-0.341h-0.341h-0.341h-0.341h-0.342h-0.341h-0.341h-0.341h-0.341h-0.342h-0.341h-0.341
	h-0.341h-0.341h-0.342h-0.341h-0.341h-0.341h-0.341h-0.342h-0.341h-0.341h-0.341H55.32h-0.342h-0.341h-0.341h-0.341h-0.341h-0.342
	H52.93h-0.341h-0.341h-0.341h-0.342h-0.341h-0.341H50.54h-0.341h-0.341h-0.341h-0.341h-0.342h-0.341H48.15h-0.341h-0.341h-0.342
	h-0.341h-0.341h-0.341h-0.341h-0.342h-0.341h-0.341h-0.341h-0.341h-0.342h-0.341h-0.341h-0.341h-0.341h-0.342h-0.341h-0.341h-0.341
	H40.64h-0.342h-0.341h-0.341h-0.341h-0.341h-0.342H38.25h-0.341h-0.341h-0.341h-0.342h-0.341h-0.341H35.86h-0.341h-0.342h-0.341
	h-0.341h-0.341h-0.341H33.47h-0.341h-0.341h-0.341h-0.341h-0.341h-0.342H31.08h-0.341h-0.341h-0.341h-0.342h-0.341h-0.341H28.69
	h-0.341h-0.342h-0.341h-0.341h-0.341h-0.341H26.3h-0.341h-0.341h-0.341h-0.341h-0.342h-0.341h-0.341h-0.341h-0.341h-0.342h-0.341
	h-0.341h-0.341h-0.341h-0.342h-0.341h-0.341h-0.341h-0.341h-0.342h-0.341H18.79h-0.341h-0.733v-74.676c0,0,0.252,0.07,0.733,0.191
	l0.341,0.085l0.341,0.083l0.341,0.082l0.342,0.081l0.341,0.079l0.341,0.078l0.341,0.078l0.341,0.075l0.342,0.075l0.341,0.074
	l0.341,0.072l0.341,0.072l0.341,0.07l0.342,0.07l0.341,0.069l0.341,0.068l0.341,0.067l0.341,0.066l0.342,0.066l0.341,0.064
	l0.341,0.063l0.341,0.063l0.341,0.062l0.342,0.062l0.341,0.061l0.341,0.06l0.341,0.06l0.341,0.058l0.342,0.059l0.341,0.057
	l0.341,0.056l0.341,0.056l0.341,0.055l0.342,0.053l0.341,0.054l0.341,0.052l0.341,0.052l0.341,0.051l0.342,0.05l0.341,0.049
	l0.341,0.049l0.341,0.049l0.341,0.046l0.341,0.047l0.342,0.046l0.341,0.044l0.341,0.044l0.341,0.043l0.341,0.043l0.342,0.042
	l0.341,0.042l0.341,0.039l0.341,0.04l0.341,0.039l0.342,0.038l0.341,0.037l0.341,0.037l0.341,0.036l0.341,0.035l0.342,0.034
	l0.341,0.034l0.341,0.033l0.341,0.032l0.341,0.031l0.342,0.031l0.341,0.029l0.341,0.029l0.341,0.029l0.341,0.027l0.342,0.027
	l0.341,0.026l0.341,0.026l0.341,0.024l0.341,0.024l0.342,0.023l0.341,0.021l0.341,0.023l0.341,0.021l0.341,0.021l0.342,0.02
	l0.341,0.019l0.341,0.019l0.341,0.018l0.341,0.016l0.342,0.017l0.341,0.015l0.341,0.014l0.341,0.015l0.341,0.012l0.342,0.013
	l0.341,0.011l0.341,0.011l0.341,0.01l0.341,0.008l0.342,0.008l0.341,0.008l0.341,0.006l0.342,0.006l0.341,0.006l0.341,0.003
	l0.341,0.003l0.341,0.003l0.342,0.001l0.341,0.001l0.132,0.001l0.209-0.002l0.341-0.002l0.341-0.002l0.342-0.002l0.341-0.002
	l0.341-0.006l0.341-0.006l0.341-0.007l0.342-0.007l0.341-0.008l0.341-0.011l0.341-0.011l0.341-0.01l0.342-0.012l0.341-0.016
	l0.341-0.015l0.341-0.015l0.341-0.016l0.342-0.02l0.341-0.02l0.341-0.02l0.341-0.02l0.341-0.023l0.342-0.023l0.341-0.025
	l0.341-0.024l0.341-0.026l0.341-0.03l0.342-0.029l0.341-0.03l0.341-0.031l0.341-0.035l0.341-0.035l0.341-0.034l0.342-0.038
	l0.341-0.04l0.341-0.04l0.341-0.04l0.341-0.044l0.342-0.047L67.952,158l0.341-0.047c0.115-0.016,0.227-0.034,0.341-0.051
	l0.341-0.052l0.342-0.052l0.341-0.054c0.115-0.019,0.227-0.038,0.341-0.058l0.341-0.057c0.113-0.02,0.229-0.038,0.341-0.059
	c0.115-0.02,0.227-0.042,0.342-0.062l0.341-0.064l0.341-0.063l0.341-0.067c0.115-0.021,0.228-0.047,0.341-0.07l0.342-0.07
	l0.341-0.07c0.115-0.025,0.227-0.052,0.341-0.077l0.341-0.077c0.113-0.026,0.229-0.051,0.341-0.077
	c0.115-0.026,0.228-0.056,0.342-0.083l0.341-0.084c0.113-0.028,0.229-0.056,0.341-0.084c0.115-0.029,0.228-0.061,0.341-0.09
	l0.341-0.092c0.114-0.03,0.229-0.06,0.342-0.091c0.115-0.032,0.228-0.064,0.341-0.097l0.341-0.1
	c0.113-0.033,0.229-0.064,0.341-0.099l0.341-0.104l0.342-0.107c0.113-0.035,0.229-0.07,0.341-0.107l0.341-0.113l0.341-0.115
	c0.113-0.039,0.229-0.076,0.341-0.116c0.115-0.04,0.228-0.083,0.342-0.124l0.341-0.124c0.113-0.042,0.229-0.084,0.341-0.126
	c0.115-0.045,0.228-0.09,0.341-0.135c0.114-0.044,0.229-0.088,0.341-0.133l0.342-0.139l0.341-0.145
	c0.113-0.047,0.229-0.094,0.341-0.143c0.115-0.051,0.227-0.103,0.341-0.154l0.341-0.152l0.341-0.159
	c0.115-0.054,0.228-0.109,0.342-0.164c0.113-0.056,0.229-0.11,0.341-0.165c0.115-0.059,0.228-0.117,0.341-0.176
	s0.229-0.117,0.341-0.176c0.115-0.061,0.228-0.123,0.342-0.185c0.114-0.062,0.229-0.124,0.341-0.188
	c0.115-0.063,0.229-0.129,0.341-0.193c0.115-0.066,0.229-0.134,0.341-0.2c0.114-0.068,0.229-0.136,0.341-0.205
	c0.115-0.07,0.228-0.142,0.342-0.213c0.114-0.072,0.229-0.144,0.341-0.217c0.115-0.074,0.228-0.151,0.341-0.227
	c0.114-0.077,0.229-0.153,0.341-0.23c0.116-0.08,0.228-0.162,0.341-0.243c0.114-0.081,0.229-0.163,0.341-0.246
	c0.116-0.085,0.229-0.172,0.342-0.259c0.115-0.087,0.229-0.176,0.341-0.264c0.115-0.092,0.229-0.184,0.341-0.275
	c0.115-0.095,0.229-0.19,0.341-0.285c0.115-0.098,0.229-0.195,0.342-0.294c0.116-0.103,0.228-0.206,0.341-0.31
	c0.114-0.105,0.229-0.209,0.341-0.316c0.116-0.109,0.229-0.221,0.341-0.333c0.115-0.114,0.229-0.229,0.341-0.346
	c0.115-0.118,0.23-0.237,0.341-0.356c0.116-0.126,0.229-0.253,0.342-0.381c0.116-0.13,0.229-0.262,0.341-0.395
	c0.115-0.136,0.23-0.272,0.341-0.411c0.116-0.144,0.23-0.287,0.341-0.433c0.117-0.152,0.229-0.306,0.341-0.46
	c0.117-0.161,0.23-0.322,0.341-0.485c0.117-0.169,0.23-0.34,0.341-0.512c0.117-0.181,0.23-0.362,0.341-0.545
	c0.117-0.193,0.231-0.389,0.342-0.584c0.117-0.208,0.231-0.417,0.341-0.628c0.118-0.226,0.231-0.452,0.341-0.682
	c0.119-0.246,0.232-0.494,0.341-0.744c0.119-0.271,0.233-0.545,0.342-0.82c0.12-0.304,0.234-0.611,0.341-0.921
	c0.122-0.351,0.235-0.705,0.341-1.062c0.124-0.418,0.238-0.84,0.341-1.266c0.129-0.529,0.243-1.063,0.341-1.604
	c0.146-0.805,0.259-1.623,0.341-2.451c0.115-1.155,0.171-2.331,0.171-3.525V88.77h-0.171h-0.341h-0.341h-0.341h-0.341h-0.341h-0.342
	h-0.341h-0.341h-0.341h-0.342h-0.341h-0.341h-0.341h-0.341h-0.341h-0.341H91.85h-0.342h-0.341h-0.341h-0.341h-0.341h-0.341H89.46
	h-0.341h-0.341h-0.341h-0.342h-0.341h-0.341H87.07h-0.341h-0.341h-0.342h-0.341h-0.341h-0.341h-0.341h-0.342h-0.341h-0.341h-0.341
	h-0.342h-0.341h-0.341h-0.341h-0.341h-0.341h-0.342h-0.341h-0.341h-0.341H79.56h-0.342h-0.341h-0.341h-0.341h-0.341h-0.342h-0.341
	h-0.341h-0.341h-0.341h-0.342h-0.341h-0.341H74.78h-0.341h-0.342h-0.341h-0.341h-0.341h-0.341H72.39h-0.341h-0.341h-0.341h-0.341
	h-0.342h-0.341H70h-0.341h-0.341h-0.342h-0.341h-0.341h-0.341H67.61h-0.259v41.113c0,0.644-0.028,1.277-0.083,1.898
	c-0.07,0.791-0.184,1.562-0.341,2.312c-0.097,0.463-0.211,0.918-0.341,1.363c-0.104,0.355-0.217,0.705-0.341,1.049
	c-0.106,0.293-0.22,0.582-0.341,0.865c-0.108,0.254-0.222,0.503-0.342,0.749c-0.109,0.224-0.222,0.445-0.341,0.663
	c-0.109,0.2-0.224,0.396-0.341,0.59c-0.11,0.184-0.224,0.364-0.341,0.542c-0.111,0.167-0.225,0.331-0.341,0.493
	c-0.111,0.154-0.224,0.308-0.341,0.458c-0.111,0.144-0.226,0.283-0.342,0.422c-0.111,0.134-0.225,0.265-0.341,0.394
	c-0.111,0.125-0.225,0.248-0.341,0.369c-0.112,0.117-0.226,0.232-0.341,0.346c-0.112,0.11-0.226,0.219-0.341,0.326
	c-0.112,0.103-0.226,0.203-0.342,0.305c-0.112,0.097-0.226,0.193-0.341,0.287c-0.112,0.092-0.226,0.182-0.341,0.271
	c-0.112,0.087-0.226,0.172-0.341,0.257c-0.113,0.082-0.226,0.163-0.341,0.243c-0.113,0.078-0.226,0.154-0.342,0.23
	c-0.112,0.073-0.226,0.146-0.341,0.217c-0.112,0.07-0.226,0.139-0.341,0.206c-0.113,0.066-0.227,0.131-0.341,0.194
	c-0.113,0.063-0.227,0.124-0.341,0.185c-0.113,0.06-0.227,0.118-0.342,0.175c-0.113,0.057-0.226,0.111-0.341,0.166
	c-0.113,0.054-0.226,0.106-0.341,0.158c-0.113,0.05-0.227,0.1-0.341,0.148c-0.113,0.048-0.227,0.094-0.341,0.139
	c-0.113,0.045-0.227,0.09-0.342,0.133c-0.113,0.042-0.226,0.084-0.341,0.125c-0.113,0.04-0.227,0.08-0.341,0.118
	c-0.113,0.038-0.227,0.075-0.341,0.11c-0.113,0.035-0.227,0.07-0.341,0.104c-0.113,0.033-0.227,0.066-0.342,0.098
	c-0.113,0.031-0.227,0.062-0.341,0.092c-0.113,0.029-0.227,0.058-0.341,0.085c-0.113,0.027-0.227,0.054-0.341,0.079
	c-0.113,0.025-0.227,0.051-0.341,0.074c-0.113,0.023-0.227,0.046-0.342,0.068c-0.113,0.021-0.227,0.041-0.341,0.062
	c-0.114,0.02-0.227,0.04-0.342,0.058l-0.341,0.053c-0.113,0.016-0.227,0.031-0.341,0.047c-0.113,0.015-0.227,0.029-0.341,0.043
	l-0.341,0.037c-0.113,0.012-0.227,0.022-0.341,0.033c-0.114,0.01-0.227,0.021-0.342,0.029c-0.113,0.009-0.227,0.016-0.341,0.023
	c-0.113,0.008-0.228,0.014-0.341,0.02s-0.227,0.012-0.341,0.017c-0.113,0.005-0.228,0.007-0.341,0.011l-0.342,0.008
	c-0.113,0.002-0.227,0.002-0.341,0.004h-0.128H48.15l-0.341-0.002l-0.341-0.006l-0.342-0.007l-0.341-0.009l-0.341-0.012
	l-0.341-0.014l-0.341-0.016l-0.342-0.018l-0.341-0.02l-0.341-0.022l-0.341-0.024l-0.341-0.026l-0.342-0.028l-0.341-0.031
	l-0.341-0.032l-0.341-0.035l-0.341-0.037l-0.342-0.039l-0.341-0.041l-0.341-0.044l-0.341-0.045l-0.341-0.047l-0.342-0.05
	l-0.341-0.051l-0.341-0.054l-0.341-0.055l-0.341-0.059l-0.342-0.059l-0.341-0.062l-0.341-0.063l-0.341-0.065l-0.341-0.067
	l-0.342-0.068l-0.341-0.072l-0.341-0.072l-0.341-0.075l-0.341-0.077l-0.342-0.078l-0.341-0.081l-0.341-0.083l-0.341-0.084
	l-0.341-0.086l-0.342-0.09l-0.341-0.09l-0.341-0.092l-0.341-0.094l-0.341-0.096l-0.341-0.097l-0.342-0.099l-0.341-0.102
	l-0.341-0.104l-0.341-0.104l-0.341-0.107l-0.342-0.108l-0.341-0.109l-0.341-0.111l-0.341-0.114l-0.341-0.115l-0.342-0.116
	l-0.341-0.118l-0.341-0.121l-0.341-0.122l-0.341-0.123L26.3,143.16l-0.341-0.127l-0.341-0.129l-0.341-0.129l-0.341-0.133
	l-0.342-0.133l-0.341-0.136l-0.341-0.138l-0.341-0.138l-0.341-0.14l-0.342-0.142l-0.341-0.144l-0.341-0.145l-0.341-0.146
	l-0.341-0.148l-0.342-0.149l-0.341-0.151l-0.341-0.151l-0.341-0.154l-0.341-0.155l-0.342-0.157l-0.341-0.158l-0.341-0.16
	L18.448,139.836L18.448,139.836L18.448,139.836z"/>
<linearGradient id="SVGID_3_" gradientUnits="userSpaceOnUse" x1="-97.6973" y1="333.8145" x2="-66.8638" y2="333.8145" gradientTransform="matrix(2.8346 0 0 -2.8346 392.6821 1069.0831)">
	<stop  offset="0" style="stop-color:#6E2B2F"/>
	<stop  offset="1" style="stop-color:#E30138"/>
</linearGradient>
<path fill="url(#SVGID_3_)" d="M116.479,97.754c-0.249,0.201-0.494,0.404-0.733,0.61V51.973c0-2.467,0.253-4.875,0.733-7.2
	c0.103-0.499,0.217-0.994,0.341-1.485c0.106-0.422,0.221-0.84,0.342-1.255c0.108-0.37,0.222-0.737,0.341-1.103
	c0.109-0.333,0.223-0.665,0.341-0.994c0.11-0.305,0.223-0.608,0.342-0.909c0.11-0.281,0.224-0.561,0.341-0.839
	c0.111-0.262,0.225-0.522,0.341-0.781c0.111-0.246,0.226-0.49,0.342-0.732c0.111-0.232,0.225-0.461,0.341-0.691
	c0.111-0.22,0.226-0.438,0.342-0.655c0.111-0.209,0.226-0.418,0.341-0.625c0.112-0.201,0.226-0.4,0.342-0.598
	c0.112-0.192,0.226-0.383,0.341-0.573c0.112-0.184,0.226-0.366,0.341-0.547c0.112-0.176,0.227-0.351,0.341-0.524
	c0.113-0.17,0.226-0.34,0.341-0.508c0.113-0.165,0.226-0.33,0.342-0.493c0.112-0.158,0.227-0.313,0.341-0.468
	c0.113-0.153,0.227-0.305,0.341-0.456c0.113-0.149,0.226-0.298,0.341-0.445c0.112-0.143,0.228-0.283,0.342-0.424
	c0.113-0.139,0.227-0.278,0.341-0.415c0.113-0.135,0.227-0.27,0.341-0.404c0.113-0.13,0.227-0.259,0.341-0.388
	c0.113-0.127,0.227-0.256,0.342-0.382c0.112-0.124,0.227-0.245,0.341-0.367c0.113-0.12,0.227-0.24,0.341-0.358
	c0.114-0.117,0.227-0.234,0.342-0.35c0.113-0.114,0.227-0.226,0.341-0.337c0.114-0.111,0.227-0.224,0.341-0.333
	c0.113-0.107,0.228-0.212,0.341-0.318c0.113-0.106,0.227-0.212,0.342-0.316c0.113-0.102,0.227-0.203,0.341-0.303
	c0.113-0.1,0.227-0.2,0.341-0.299c0.113-0.097,0.227-0.193,0.341-0.289c0.114-0.095,0.227-0.19,0.342-0.284
	c0.113-0.093,0.227-0.184,0.341-0.275c0.113-0.09,0.227-0.18,0.341-0.269c0.113-0.088,0.227-0.175,0.341-0.262
	c0.113-0.086,0.227-0.171,0.341-0.256c0.113-0.084,0.228-0.167,0.342-0.249c0.113-0.082,0.227-0.164,0.341-0.244
	c0.113-0.08,0.227-0.158,0.341-0.236c0.114-0.078,0.227-0.156,0.341-0.232c0.113-0.076,0.228-0.15,0.342-0.225
	c0.113-0.074,0.227-0.148,0.341-0.221c0.113-0.072,0.227-0.143,0.341-0.213c0.114-0.071,0.227-0.142,0.341-0.211
	c0.113-0.068,0.228-0.135,0.342-0.202c0.114-0.067,0.227-0.136,0.341-0.201c0.113-0.065,0.228-0.127,0.341-0.191
	c0.114-0.063,0.227-0.128,0.341-0.19c0.113-0.062,0.228-0.121,0.341-0.182s0.227-0.121,0.342-0.181l0.341-0.174l0.341-0.169
	c0.113-0.056,0.227-0.112,0.341-0.166c0.113-0.054,0.228-0.107,0.342-0.16c0.114-0.053,0.227-0.107,0.341-0.159
	c0.113-0.051,0.228-0.1,0.341-0.149c0.114-0.05,0.227-0.101,0.341-0.149c0.113-0.048,0.228-0.095,0.341-0.142l0.342-0.14
	c0.113-0.045,0.227-0.091,0.341-0.136c0.113-0.044,0.228-0.087,0.341-0.13c0.114-0.043,0.227-0.087,0.341-0.129
	c0.113-0.042,0.228-0.08,0.342-0.12c0.114-0.041,0.227-0.081,0.341-0.12c0.113-0.039,0.228-0.077,0.341-0.114l0.341-0.111
	c0.114-0.036,0.228-0.074,0.342-0.109c0.113-0.035,0.228-0.068,0.341-0.102c0.113-0.034,0.227-0.069,0.341-0.102
	c0.113-0.033,0.228-0.063,0.341-0.095l0.341-0.092c0.114-0.03,0.228-0.061,0.342-0.09c0.113-0.029,0.228-0.056,0.341-0.083
	c0.113-0.028,0.227-0.057,0.341-0.083c0.113-0.026,0.228-0.051,0.341-0.077l0.342-0.074c0.114-0.024,0.227-0.049,0.341-0.072
	c0.113-0.023,0.228-0.043,0.341-0.065s0.227-0.045,0.341-0.065l0.342-0.059l0.341-0.057c0.114-0.018,0.227-0.038,0.341-0.055
	c0.113-0.017,0.228-0.032,0.341-0.048c0.114-0.016,0.228-0.033,0.341-0.047l0.342-0.043l0.341-0.039
	c0.114-0.013,0.227-0.027,0.341-0.039c0.113-0.012,0.228-0.021,0.341-0.031l0.342-0.03c0.113-0.01,0.227-0.019,0.341-0.027
	c0.113-0.008,0.228-0.015,0.341-0.022s0.227-0.015,0.341-0.021c0.114-0.006,0.228-0.01,0.342-0.016l0.341-0.013
	c0.114-0.004,0.227-0.01,0.341-0.013c0.113-0.003,0.228-0.002,0.341-0.004c0.114-0.002,0.228-0.004,0.342-0.004l0.15-0.002h0.191
	h0.341h0.341h0.341h0.342h0.341h0.341h0.341h0.342h0.341h0.341h0.341h0.341h0.342h0.341h0.342h0.341h0.342h0.341h0.341h0.342h0.341
	h0.341h0.341h0.342h0.342h0.341h0.342h0.342h0.341h0.341h0.342h0.342h0.342h0.341h0.341h0.342h0.342h0.342h0.341h0.341h0.342h0.342
	h0.342h0.341h0.341h0.342h0.342h0.342h0.341h0.342h0.341h0.342h0.342h0.341h0.342h0.341h0.342h0.342h0.342h0.341h0.341h0.342h0.342
	h0.342h0.341h0.341h0.342h0.342h0.342h0.341h0.341h0.342h0.342h0.342h0.341h0.342h0.341h0.342h0.342h0.341h0.342h0.341h0.342h0.342
	h0.342h0.341h0.341h0.342h0.342h0.342h0.341h0.341h0.342h0.342h0.342h0.341h0.341h0.342h0.342h0.342h0.341h0.342h0.341h0.342h0.342
	h0.341h0.342h0.341h0.342h0.342h0.342h0.341h0.341h0.342h0.342h0.342h0.341h0.341h0.342h0.342h0.342h0.341h0.341h0.342h0.342h0.342
	h0.341h0.342h0.341h0.342h0.342h0.341h0.342h0.341h0.342h0.342h0.342h0.341h0.341h0.342h0.342h0.342h0.34h0.342h0.342h0.342h0.342
	h0.34h0.342h0.342h0.342h0.289v177.17c0,1.541-0.099,3.059-0.289,4.547c-0.092,0.717-0.207,1.426-0.342,2.129
	c-0.102,0.535-0.215,1.065-0.342,1.592c-0.105,0.443-0.219,0.883-0.342,1.32c-0.107,0.383-0.221,0.763-0.34,1.141
	c-0.109,0.342-0.224,0.68-0.342,1.018c-0.109,0.312-0.225,0.623-0.342,0.931c-0.11,0.287-0.224,0.573-0.342,0.856
	c-0.11,0.268-0.225,0.534-0.342,0.799c-0.109,0.25-0.225,0.498-0.34,0.746c-0.112,0.236-0.226,0.472-0.342,0.705
	c-0.111,0.224-0.227,0.445-0.342,0.667c-0.111,0.213-0.225,0.425-0.342,0.636c-0.111,0.203-0.225,0.406-0.341,0.607
	c-0.112,0.193-0.226,0.386-0.341,0.577c-0.113,0.186-0.227,0.369-0.342,0.552c-0.113,0.18-0.227,0.357-0.342,0.533
	c-0.113,0.172-0.226,0.346-0.342,0.516c-0.111,0.166-0.227,0.329-0.341,0.492c-0.112,0.16-0.227,0.318-0.342,0.477
	c-0.112,0.154-0.226,0.31-0.341,0.463c-0.113,0.148-0.227,0.297-0.342,0.444c-0.112,0.145-0.227,0.288-0.342,0.431
	c-0.113,0.141-0.226,0.281-0.341,0.42c-0.112,0.137-0.228,0.271-0.342,0.404c-0.112,0.133-0.227,0.264-0.341,0.394
	c-0.113,0.129-0.227,0.258-0.342,0.386c-0.113,0.123-0.228,0.245-0.342,0.368c-0.113,0.122-0.227,0.243-0.342,0.364
	c-0.112,0.117-0.227,0.232-0.341,0.349c-0.112,0.115-0.227,0.229-0.341,0.343c-0.113,0.111-0.227,0.223-0.342,0.333
	c-0.113,0.108-0.227,0.216-0.342,0.323c-0.113,0.105-0.227,0.213-0.342,0.318c-0.112,0.103-0.227,0.203-0.341,0.305
	s-0.227,0.203-0.341,0.303c-0.113,0.098-0.229,0.193-0.342,0.289c-0.114,0.097-0.227,0.193-0.342,0.288
	c-0.113,0.093-0.228,0.183-0.342,0.274c-0.113,0.092-0.227,0.184-0.341,0.273c-0.112,0.089-0.228,0.175-0.341,0.262
	c-0.114,0.087-0.228,0.174-0.342,0.26c-0.113,0.084-0.228,0.166-0.342,0.249c-0.113,0.083-0.227,0.166-0.342,0.247
	c-0.112,0.08-0.227,0.158-0.341,0.236c-0.114,0.08-0.228,0.159-0.342,0.236c-0.112,0.076-0.228,0.15-0.341,0.225
	c-0.114,0.075-0.227,0.151-0.342,0.225c-0.113,0.072-0.229,0.143-0.342,0.214s-0.227,0.144-0.341,0.213
	c-0.113,0.069-0.228,0.136-0.342,0.203s-0.228,0.136-0.341,0.202c-0.113,0.064-0.228,0.129-0.342,0.193l-0.342,0.191l-0.342,0.185
	l-0.341,0.181c-0.114,0.059-0.228,0.118-0.341,0.177c-0.113,0.058-0.228,0.113-0.342,0.169c-0.113,0.057-0.227,0.114-0.342,0.17
	c-0.113,0.055-0.228,0.105-0.342,0.159c-0.113,0.054-0.227,0.108-0.341,0.159c-0.113,0.052-0.228,0.102-0.341,0.152l-0.342,0.148
	l-0.342,0.146l-0.342,0.14c-0.113,0.046-0.227,0.094-0.341,0.139c-0.113,0.044-0.228,0.086-0.341,0.129
	c-0.115,0.043-0.228,0.088-0.342,0.13c-0.113,0.042-0.228,0.082-0.342,0.123l-0.342,0.12l-0.341,0.117
	c-0.113,0.037-0.228,0.074-0.342,0.11c-0.114,0.037-0.228,0.075-0.341,0.11c-0.113,0.036-0.229,0.068-0.342,0.104l-0.342,0.102
	l-0.341,0.097c-0.114,0.032-0.228,0.062-0.342,0.093c-0.114,0.03-0.227,0.062-0.341,0.092c-0.113,0.029-0.229,0.056-0.342,0.084
	c-0.113,0.027-0.228,0.057-0.342,0.083l-0.342,0.079l-0.341,0.074c-0.114,0.023-0.228,0.051-0.341,0.074s-0.229,0.043-0.342,0.065
	l-0.342,0.065l-0.342,0.062c-0.113,0.02-0.227,0.038-0.341,0.057s-0.228,0.038-0.341,0.056s-0.229,0.033-0.342,0.05l-0.342,0.048
	c-0.113,0.016-0.227,0.031-0.342,0.045c-0.113,0.014-0.227,0.026-0.341,0.039c-0.114,0.014-0.228,0.027-0.341,0.039
	s-0.229,0.022-0.342,0.033l-0.342,0.03c-0.113,0.01-0.227,0.021-0.342,0.03c-0.113,0.008-0.227,0.014-0.341,0.021l-0.342,0.021
	l-0.341,0.018c-0.113,0.006-0.229,0.01-0.342,0.014s-0.228,0.01-0.342,0.013c-0.113,0.003-0.227,0.005-0.341,0.007l-0.342,0.004
	c-0.106,0.001-0.212,0.004-0.318,0.004h-0.022h-0.342h-0.342h-0.342h-0.341h-0.341h-0.342h-0.342h-0.342h-0.341h-0.341h-0.342
	h-0.342h-0.342h-0.341h-0.341h-0.342h-0.342h-0.342h-0.341h-0.341h-0.342h-0.342h-0.341h-0.342h-0.342h-0.341h-0.341h-0.341h-0.342
	h-0.341h-0.341h-0.342h-0.341h-0.342h-0.341H155.4h-0.341h-0.341h-0.341h-0.341h-0.342h-0.341h-0.341h-0.341h-0.342h-0.341h-0.341
	h-0.341h-0.341h-0.342h-0.341h-0.341h-0.341h-0.342h-0.341h-0.341h-0.341h-0.342h-0.341h-0.341h-0.341h-0.342h-0.341h-0.341H145.5
	h-0.341h-0.342h-0.341h-0.341h-0.341h-0.342h-0.341h-0.341h-0.341h-0.342h-0.341h-0.341h-0.341h-0.341h-0.342h-0.341h-0.341h-0.341
	h-0.342h-0.341h-0.341h-0.341h-0.342h-0.341h-0.341h-0.341h-0.341h-0.342h-0.341h-0.341h-0.341h-0.342h-0.341h-0.341h-0.341h-0.341
	h-0.342h-0.341h-0.341h-0.341h-0.342h-0.341h-0.341h-0.341h-0.342h-0.341h-0.341h-0.341h-0.341h-0.342h-0.341h-0.341h-0.341h-0.342
	h-0.341h-0.341h-0.341h-0.342h-0.341h-0.341h-0.342h-0.341h-0.341h-0.341h-0.342h-0.341h-0.341h-0.341h-0.342H121.6h-0.341h-0.341
	h-0.341h-0.342h-0.341h-0.342h-0.341h-0.342h-0.341h-0.341h-0.342h-0.341h-0.341h-0.342h-0.341h-0.733v-81.812
	c0.239,0.205,0.484,0.408,0.733,0.609c0.113,0.091,0.227,0.182,0.341,0.271c0.113,0.09,0.227,0.178,0.342,0.266
	c0.113,0.088,0.226,0.174,0.341,0.26c0.113,0.085,0.227,0.168,0.341,0.251c0.113,0.083,0.227,0.164,0.342,0.245
	c0.113,0.08,0.226,0.161,0.341,0.24l0.341,0.234c0.113,0.076,0.227,0.152,0.342,0.227l0.341,0.224
	c0.113,0.073,0.227,0.146,0.342,0.218c0.112,0.071,0.227,0.142,0.341,0.212l0.342,0.208c0.113,0.067,0.227,0.136,0.341,0.203
	c0.113,0.066,0.227,0.131,0.341,0.197l0.341,0.193l0.341,0.189l0.342,0.185c0.113,0.062,0.227,0.122,0.341,0.183
	c0.113,0.059,0.227,0.117,0.341,0.176l0.341,0.173l0.342,0.17l0.341,0.165c0.114,0.055,0.227,0.109,0.341,0.163l0.341,0.157
	l0.342,0.156l0.341,0.151l0.341,0.149l0.342,0.146l0.341,0.143l0.341,0.14l0.341,0.137l0.342,0.135l0.341,0.129
	c0.114,0.044,0.227,0.088,0.341,0.13l0.341,0.124c0.114,0.042,0.227,0.084,0.342,0.125c0.113,0.04,0.228,0.079,0.341,0.119
	l0.341,0.119l0.341,0.113c0.114,0.038,0.227,0.077,0.341,0.115c0.113,0.037,0.228,0.072,0.342,0.109l0.341,0.109l0.341,0.104
	l0.341,0.104l0.342,0.101l0.341,0.1l0.341,0.097l0.341,0.096l0.342,0.094l0.341,0.09l0.341,0.09l0.341,0.087l0.341,0.086
	l0.342,0.083l0.341,0.082l0.341,0.08l0.341,0.078l0.342,0.075l0.341,0.075l0.341,0.073l0.341,0.069l0.341,0.071l0.342,0.067
	l0.341,0.066l0.341,0.064l0.341,0.062l0.342,0.062l0.341,0.06l0.341,0.059l0.341,0.058l0.342,0.055l0.341,0.056l0.341,0.052
	l0.341,0.053l0.341,0.049l0.342,0.049l0.341,0.049l0.341,0.045l0.341,0.045l0.342,0.043l0.341,0.042l0.341,0.042l0.341,0.039
	l0.342,0.038l0.341,0.038l0.341,0.035l0.341,0.035l0.341,0.034l0.342,0.032l0.341,0.032l0.341,0.03l0.341,0.028l0.342,0.029
	l0.341,0.026l0.341,0.025l0.341,0.026l0.342,0.022l0.341,0.023l0.341,0.022l0.341,0.021l0.342,0.02l0.341,0.02l0.341,0.017
	l0.341,0.017l0.341,0.018l0.342,0.014l0.341,0.014l0.341,0.014l0.341,0.012l0.342,0.012l0.341,0.011l0.341,0.009l0.341,0.008
	l0.341,0.009l0.342,0.006l0.341,0.006l0.342,0.006l0.341,0.003l0.342,0.004l0.341,0.003l0.341,0.001l0.342,0.001l0.341,0.001
	l0.341-0.002l0.341-0.002l0.342-0.002l0.342-0.002l0.341-0.005l0.342-0.005l0.342-0.004l0.341-0.008l0.341-0.006l0.342-0.008
	l0.342-0.009l0.342-0.009l0.341-0.01l0.341-0.011l0.342-0.012l0.342-0.012l0.342-0.012l0.341-0.015l0.341-0.014l0.342-0.014
	l0.167-0.008l0.175-0.008l0.342-0.018l0.341-0.018l0.341-0.019l0.342-0.021l0.342-0.021l0.342-0.023l0.341-0.022l0.342-0.025
	l0.341-0.025l0.342-0.027l0.342-0.028l0.341-0.029l0.342-0.029l0.341-0.031l0.342-0.032l0.342-0.032l0.342-0.035l0.341-0.033
	l0.341-0.037l0.342-0.036l0.342-0.038l0.342-0.038l0.341-0.04l0.341-0.039l0.342-0.042l0.342-0.042l0.342-0.043l0.341-0.043
	l0.341-0.044l0.342-0.046l0.342-0.046l0.342-0.047l0.341-0.048l0.342-0.048l0.341-0.05l0.342-0.049l0.342-0.051l0.341-0.052
	l0.342-0.052l0.341-0.053l0.342-0.055l0.342-0.054l0.342-0.055l0.341-0.056l0.341-0.057l0.342-0.057l0.342-0.059l0.342-0.059
	l0.341-0.059l0.341-0.061l0.342-0.061l0.342-0.061l0.342-0.062l0.341-0.062l0.341-0.063l0.342-0.064l0.342-0.064l0.342-0.064
	l0.341-0.066l0.342-0.066l0.341-0.067l0.342-0.067l0.342-0.068l0.341-0.07l0.342-0.069l0.341-0.071l0.342-0.07l0.342-0.072
	l0.342-0.073l0.341-0.073l0.341-0.074l0.342-0.074l0.342-0.076l0.342-0.076l0.341-0.077l0.341-0.078l0.342-0.079l0.342-0.08
	l0.342-0.082l0.341-0.082l0.34-0.084v-14.988l-0.34,0.169l-0.341,0.169l-0.342,0.166l-0.342,0.166l-0.342,0.164l-0.341,0.162
	l-0.341,0.161l-0.342,0.159l-0.342,0.157l-0.342,0.156l-0.341,0.153l-0.341,0.152l-0.342,0.15l-0.342,0.148l-0.342,0.147
	l-0.341,0.146l-0.342,0.143l-0.341,0.143l-0.342,0.139l-0.342,0.139l-0.341,0.136l-0.342,0.134l-0.341,0.133l-0.342,0.13
	l-0.342,0.128l-0.342,0.127l-0.341,0.124l-0.341,0.123l-0.342,0.12l-0.342,0.119l-0.342,0.117l-0.341,0.114l-0.341,0.113
	l-0.342,0.11l-0.342,0.109l-0.342,0.107l-0.341,0.104l-0.341,0.104l-0.342,0.101l-0.342,0.1l-0.342,0.098l-0.341,0.096l-0.342,0.093
	l-0.341,0.092l-0.342,0.089l-0.342,0.088l-0.341,0.086l-0.342,0.084l-0.341,0.082l-0.342,0.08l-0.342,0.077l-0.342,0.077
	l-0.341,0.074l-0.341,0.072l-0.342,0.069l-0.342,0.069l-0.342,0.066l-0.341,0.064l-0.341,0.062l-0.342,0.061l-0.342,0.06
	l-0.342,0.057l-0.341,0.056l-0.341,0.054l-0.342,0.051l-0.342,0.05l-0.342,0.049l-0.341,0.045l-0.342,0.045l-0.341,0.042
	l-0.342,0.041l-0.342,0.038l-0.341,0.037l-0.342,0.035l-0.341,0.033l-0.342,0.031l-0.342,0.03l-0.342,0.028l-0.206,0.016
	l-0.135,0.01l-0.341,0.023l-0.342,0.021l-0.342,0.02l-0.342,0.017l-0.341,0.017l-0.341,0.01l-0.342,0.012l-0.342,0.008l-0.342,0.005
	l-0.341,0.004c-0.114,0.001-0.228-0.001-0.341-0.001l-0.342-0.001l-0.342-0.005l-0.342-0.008l-0.341-0.009
	c-0.114-0.004-0.228-0.009-0.341-0.014c-0.114-0.005-0.229-0.009-0.342-0.015l-0.342-0.019l-0.341-0.021l-0.341-0.023l-0.342-0.027
	c-0.113-0.01-0.228-0.018-0.341-0.027c-0.114-0.011-0.228-0.023-0.341-0.035l-0.341-0.033l-0.342-0.04l-0.341-0.042l-0.341-0.045
	l-0.341-0.048c-0.114-0.017-0.228-0.033-0.341-0.051c-0.115-0.019-0.228-0.038-0.342-0.057c-0.113-0.019-0.228-0.036-0.341-0.057
	c-0.115-0.021-0.228-0.043-0.342-0.063c-0.114-0.021-0.229-0.042-0.341-0.064c-0.115-0.022-0.228-0.047-0.341-0.071
	s-0.229-0.047-0.342-0.071c-0.114-0.025-0.228-0.053-0.341-0.079l-0.342-0.08c-0.115-0.028-0.228-0.058-0.341-0.087
	c-0.114-0.028-0.229-0.058-0.341-0.088c-0.115-0.03-0.228-0.062-0.341-0.094c-0.114-0.033-0.229-0.064-0.342-0.098
	c-0.115-0.034-0.228-0.068-0.341-0.104c-0.114-0.035-0.228-0.07-0.341-0.107c-0.114-0.036-0.228-0.074-0.341-0.112
	c-0.114-0.038-0.229-0.077-0.341-0.116c-0.115-0.039-0.228-0.082-0.342-0.123s-0.229-0.082-0.341-0.125
	c-0.115-0.044-0.228-0.09-0.341-0.135c-0.114-0.045-0.229-0.09-0.341-0.135c-0.115-0.048-0.228-0.098-0.342-0.146
	c-0.114-0.049-0.229-0.098-0.342-0.148c-0.115-0.051-0.228-0.104-0.341-0.156c-0.114-0.054-0.229-0.107-0.341-0.162
	c-0.115-0.055-0.229-0.111-0.342-0.168c-0.115-0.059-0.228-0.117-0.341-0.176c-0.114-0.061-0.229-0.119-0.341-0.181
	c-0.115-0.063-0.228-0.128-0.341-0.192c-0.114-0.064-0.229-0.129-0.342-0.195c-0.115-0.068-0.228-0.137-0.341-0.206
	c-0.115-0.07-0.228-0.143-0.341-0.215c-0.114-0.073-0.229-0.146-0.341-0.22c-0.116-0.076-0.228-0.156-0.341-0.234
	c-0.115-0.079-0.229-0.16-0.342-0.241c-0.114-0.082-0.229-0.165-0.341-0.249c-0.115-0.087-0.229-0.176-0.341-0.264
	c-0.115-0.091-0.229-0.182-0.341-0.273c-0.115-0.094-0.229-0.188-0.342-0.283c-0.115-0.099-0.229-0.199-0.341-0.301
	c-0.115-0.103-0.229-0.207-0.341-0.312c-0.115-0.107-0.229-0.215-0.341-0.325c-0.115-0.112-0.23-0.225-0.342-0.339
	c-0.116-0.119-0.229-0.24-0.341-0.361c-0.116-0.125-0.229-0.25-0.341-0.378c-0.116-0.131-0.229-0.263-0.341-0.397
	c-0.116-0.137-0.229-0.276-0.341-0.418c-0.116-0.145-0.23-0.293-0.342-0.441c-0.116-0.154-0.23-0.311-0.341-0.468
	c-0.116-0.164-0.23-0.33-0.341-0.498c-0.116-0.176-0.23-0.353-0.341-0.532c-0.117-0.188-0.23-0.379-0.342-0.572
	c-0.117-0.202-0.23-0.408-0.341-0.615c-0.118-0.221-0.231-0.444-0.341-0.67c-0.118-0.24-0.232-0.484-0.341-0.73
	c-0.118-0.265-0.233-0.532-0.342-0.805c-0.12-0.301-0.232-0.607-0.341-0.917c-0.121-0.343-0.235-0.69-0.341-1.044
	c-0.123-0.41-0.237-0.828-0.341-1.252c-0.129-0.527-0.242-1.066-0.341-1.615c-0.147-0.813-0.262-1.649-0.342-2.508
	c-0.092-0.992-0.139-2.014-0.139-3.066c0-1.052,0.047-2.074,0.139-3.067c0.08-0.859,0.194-1.696,0.342-2.51
	c0.099-0.549,0.212-1.088,0.341-1.616c0.104-0.424,0.218-0.841,0.341-1.251c0.106-0.354,0.221-0.702,0.341-1.045
	c0.109-0.31,0.221-0.616,0.341-0.917c0.109-0.272,0.224-0.54,0.342-0.805c0.109-0.247,0.224-0.49,0.341-0.73
	c0.11-0.226,0.224-0.45,0.341-0.67c0.111-0.208,0.224-0.414,0.341-0.617c0.111-0.193,0.225-0.383,0.342-0.572
	c0.111-0.18,0.225-0.357,0.341-0.532c0.111-0.168,0.226-0.334,0.341-0.499c0.111-0.158,0.226-0.313,0.341-0.468
	c0.112-0.149,0.226-0.296,0.342-0.442c0.112-0.141,0.226-0.28,0.341-0.418c0.112-0.134,0.226-0.267,0.341-0.397
	c0.112-0.127,0.226-0.254,0.341-0.378c0.113-0.121,0.226-0.242,0.341-0.361c0.112-0.115,0.227-0.227,0.342-0.339
	c0.112-0.11,0.226-0.218,0.341-0.326c0.113-0.105,0.226-0.21,0.341-0.313c0.113-0.101,0.226-0.201,0.341-0.3
	c0.112-0.096,0.227-0.189,0.342-0.283c0.113-0.092,0.226-0.184,0.341-0.273c0.113-0.089,0.226-0.178,0.341-0.265
	c0.112-0.084,0.227-0.167,0.341-0.25c0.113-0.082,0.227-0.162,0.342-0.241c0.113-0.079,0.226-0.158,0.341-0.234
	c0.112-0.075,0.227-0.147,0.341-0.22c0.113-0.072,0.227-0.144,0.341-0.214c0.113-0.069,0.227-0.139,0.341-0.206
	c0.113-0.067,0.228-0.131,0.342-0.196c0.113-0.064,0.226-0.129,0.341-0.191c0.112-0.062,0.227-0.121,0.341-0.181
	c0.113-0.059,0.227-0.118,0.341-0.176c0.113-0.057,0.227-0.113,0.342-0.169c0.113-0.055,0.227-0.108,0.341-0.161
	c0.113-0.053,0.226-0.106,0.341-0.157c0.113-0.05,0.228-0.099,0.342-0.148c0.114-0.049,0.227-0.099,0.342-0.146
	c0.113-0.046,0.227-0.091,0.341-0.136c0.113-0.045,0.227-0.09,0.341-0.134c0.113-0.043,0.228-0.084,0.341-0.125
	s0.227-0.083,0.342-0.124c0.113-0.039,0.227-0.078,0.341-0.116c0.113-0.038,0.227-0.076,0.341-0.113
	c0.113-0.036,0.227-0.071,0.341-0.106c0.113-0.035,0.227-0.07,0.341-0.104l0.342-0.097c0.113-0.032,0.227-0.064,0.341-0.095
	c0.113-0.03,0.227-0.06,0.341-0.088c0.113-0.029,0.227-0.059,0.341-0.086l0.342-0.08c0.113-0.026,0.227-0.053,0.341-0.079
	c0.113-0.025,0.228-0.048,0.342-0.072c0.114-0.023,0.227-0.048,0.341-0.071c0.113-0.022,0.228-0.042,0.341-0.063
	c0.114-0.021,0.227-0.044,0.342-0.064c0.113-0.02,0.228-0.038,0.341-0.057c0.114-0.019,0.227-0.039,0.342-0.056l0.341-0.051
	l0.341-0.049l0.341-0.045l0.341-0.042l0.342-0.04l0.341-0.035c0.114-0.011,0.227-0.023,0.341-0.034
	c0.113-0.01,0.228-0.019,0.341-0.028l0.342-0.027l0.341-0.024l0.341-0.02l0.342-0.019c0.113-0.006,0.228-0.009,0.342-0.014
	c0.113-0.004,0.227-0.01,0.341-0.014l0.341-0.009l0.342-0.007l0.342-0.005l0.342-0.001c0.113,0,0.227-0.002,0.341-0.001l0.341,0.004
	l0.342,0.005l0.342,0.007l0.342,0.011l0.341,0.011l0.341,0.016l0.342,0.017l0.342,0.019l0.342,0.022l0.341,0.023l0.135,0.009
	l0.206,0.016l0.342,0.027l0.342,0.03l0.342,0.031l0.341,0.033l0.342,0.035l0.341,0.037l0.342,0.038l0.342,0.04l0.341,0.042
	l0.342,0.043l0.341,0.045l0.342,0.047l0.342,0.049l0.342,0.051l0.341,0.053l0.341,0.055l0.342,0.056l0.342,0.059l0.342,0.061
	l0.341,0.062l0.341,0.063l0.342,0.066l0.342,0.068l0.342,0.07l0.341,0.072l0.341,0.074l0.342,0.076l0.342,0.077l0.342,0.079
	l0.341,0.082l0.342,0.083l0.341,0.085l0.342,0.087l0.342,0.089l0.341,0.091l0.342,0.093l0.341,0.095l0.342,0.097l0.342,0.099
	l0.342,0.101l0.341,0.104l0.341,0.104l0.342,0.107l0.342,0.109l0.342,0.111l0.341,0.113l0.341,0.115l0.342,0.117l0.342,0.119
	l0.342,0.122l0.341,0.123l0.341,0.125l0.342,0.127l0.342,0.129l0.342,0.131l0.341,0.133l0.342,0.135l0.341,0.137l0.342,0.139
	l0.342,0.141l0.341,0.143l0.342,0.144l0.341,0.146l0.342,0.148l0.342,0.15l0.342,0.151l0.341,0.153l0.341,0.156l0.342,0.157
	l0.342,0.159l0.342,0.161l0.341,0.162l0.341,0.164l0.342,0.166l0.342,0.167l0.342,0.168l0.341,0.17l0.34,0.17v-15l-0.34-0.084
	l-0.341-0.082l-0.342-0.081l-0.342-0.081l-0.342-0.079l-0.341-0.078l-0.341-0.078l-0.342-0.076l-0.342-0.076l-0.342-0.075
	l-0.341-0.074l-0.341-0.073l-0.342-0.073l-0.342-0.072l-0.342-0.071l-0.341-0.071l-0.342-0.07l-0.341-0.069l-0.342-0.069
	l-0.342-0.067l-0.341-0.067l-0.342-0.067l-0.341-0.066l-0.342-0.065l-0.342-0.064l-0.342-0.064l-0.341-0.063l-0.341-0.062
	l-0.342-0.062l-0.342-0.061l-0.342-0.061l-0.341-0.06l-0.341-0.059l-0.342-0.059l-0.342-0.058l-0.342-0.057l-0.341-0.056
	l-0.341-0.056l-0.342-0.055l-0.342-0.055l-0.342-0.053l-0.341-0.053l-0.342-0.052l-0.341-0.051l-0.342-0.051l-0.342-0.05
	l-0.341-0.049l-0.342-0.048l-0.341-0.047l-0.342-0.047l-0.342-0.046l-0.342-0.045l-0.341-0.044l-0.341-0.043l-0.342-0.043
	l-0.342-0.042l-0.342-0.041l-0.341-0.04l-0.341-0.04l-0.342-0.038l-0.342-0.038l-0.342-0.036l-0.341-0.036l-0.341-0.034
	l-0.342-0.034l-0.342-0.033l-0.342-0.032l-0.341-0.031l-0.342-0.03l-0.341-0.029l-0.342-0.028l-0.342-0.027l-0.341-0.025
	l-0.342-0.025l-0.341-0.023l-0.342-0.023l-0.342-0.021l-0.342-0.021l-0.341-0.019l-0.341-0.018l-0.342-0.017l-0.175-0.008
	l-0.167-0.007l-0.342-0.014l-0.341-0.014l-0.341-0.014l-0.342-0.012l-0.342-0.012l-0.342-0.012l-0.341-0.01l-0.341-0.01
	l-0.342-0.009l-0.342-0.009l-0.342-0.007l-0.341-0.007l-0.341-0.007l-0.342-0.004l-0.342-0.004l-0.341-0.005l-0.342-0.002
	l-0.342-0.002l-0.341-0.002l-0.341-0.001l-0.341,0l-0.342,0.001l-0.341,0.001l-0.341,0.003l-0.342,0.003l-0.341,0.003l-0.342,0.006
	l-0.341,0.006l-0.342,0.006l-0.341,0.009l-0.341,0.008l-0.341,0.008l-0.341,0.011l-0.342,0.011l-0.341,0.012l-0.341,0.014
	l-0.341,0.014l-0.342,0.014l-0.341,0.017l-0.341,0.017l-0.341,0.017l-0.341,0.02l-0.342,0.02l-0.341,0.02l-0.341,0.023l-0.341,0.023
	l-0.342,0.023l-0.341,0.026l-0.341,0.026l-0.341,0.027l-0.342,0.029l-0.341,0.028l-0.341,0.031l-0.341,0.032l-0.342,0.032
	l-0.341,0.034l-0.341,0.036L145.5,87.46l-0.341,0.038l-0.342,0.039l-0.341,0.039l-0.341,0.042l-0.341,0.042l-0.342,0.044
	l-0.341,0.045l-0.341,0.045l-0.341,0.048l-0.342,0.049l-0.341,0.05l-0.341,0.052l-0.341,0.052l-0.341,0.055l-0.342,0.056
	l-0.341,0.057l-0.341,0.059l-0.341,0.059l-0.342,0.062l-0.341,0.063l-0.341,0.064l-0.341,0.066l-0.342,0.067l-0.341,0.07
	l-0.341,0.071l-0.341,0.073l-0.341,0.075l-0.342,0.076l-0.341,0.079l-0.341,0.079l-0.341,0.083l-0.342,0.083l-0.341,0.086
	l-0.341,0.087l-0.341,0.089l-0.341,0.091l-0.342,0.093l-0.341,0.095l-0.341,0.097l-0.341,0.1l-0.342,0.101l-0.341,0.104
	l-0.341,0.105l-0.341,0.109c-0.114,0.036-0.229,0.072-0.342,0.109l-0.341,0.114c-0.113,0.038-0.229,0.075-0.341,0.114l-0.341,0.119
	l-0.341,0.119c-0.115,0.041-0.228,0.083-0.342,0.125s-0.229,0.082-0.341,0.125l-0.341,0.129c-0.114,0.043-0.229,0.086-0.341,0.13
	l-0.342,0.135l-0.341,0.136l-0.341,0.14l-0.341,0.143l-0.342,0.146l-0.341,0.149l-0.341,0.151l-0.342,0.156l-0.341,0.157
	c-0.115,0.054-0.228,0.109-0.341,0.164l-0.341,0.165l-0.342,0.17l-0.341,0.173c-0.114,0.059-0.229,0.117-0.341,0.176
	c-0.115,0.06-0.228,0.121-0.341,0.182l-0.342,0.185l-0.341,0.189c-0.115,0.064-0.228,0.129-0.341,0.194
	c-0.114,0.065-0.229,0.131-0.341,0.197c-0.115,0.067-0.228,0.135-0.341,0.203c-0.115,0.069-0.229,0.138-0.342,0.208
	c-0.114,0.07-0.229,0.141-0.341,0.211c-0.115,0.072-0.229,0.146-0.342,0.218l-0.341,0.223c-0.115,0.076-0.229,0.151-0.342,0.227
	l-0.341,0.234c-0.115,0.08-0.228,0.16-0.341,0.24c-0.115,0.081-0.229,0.163-0.342,0.246c-0.114,0.083-0.229,0.167-0.341,0.25
	c-0.115,0.086-0.228,0.173-0.341,0.26c-0.115,0.088-0.229,0.177-0.342,0.266C116.706,97.572,116.592,97.663,116.479,97.754
	L116.479,97.754L116.479,97.754z"/>
</svg>
