<?xml version="1.0" encoding="utf-8"?>
<!-- Generator: Adobe Illustrator 16.2.1, SVG Export Plug-In . SVG Version: 6.00 Build 0)  -->
<!DOCTYPE svg PUBLIC "-//W3C//DTD SVG 1.1//EN" "http://www.w3.org/Graphics/SVG/1.1/DTD/svg11.dtd">
<svg version="1.1" id="Calque_1" xmlns="http://www.w3.org/2000/svg" xmlns:xlink="http://www.w3.org/1999/xlink" x="0px" y="0px"
	 width="56.69px" height="35.575px" viewBox="0 0 56.69 35.575" enable-background="new 0 0 56.69 35.575" xml:space="preserve">
<polygon fill="#1E306D" points="0,0 0,35.575 56.646,35.575 56.646,0 0,0 "/>
<path fill="#EE8414" d="M23.07,17.835c0-8.72,7.069-15.788,15.789-15.788c8.721,0,15.787,7.068,15.787,15.788
	c0,8.719-7.066,15.788-15.787,15.788C30.139,33.624,23.07,26.554,23.07,17.835L23.07,17.835z"/>
<path fill="#E20020" d="M28.283,6.083c0.008,0-0.827,0.722-1.384,1.429h2.809c0,0,0.96,1.038,1.315,1.822h-5.49
	c0,0-0.532,0.836-0.886,1.543h7.262c0,0,0.664,1.242,0.809,1.898h-8.83c0,0-0.303,0.86-0.43,1.493l9.666-0.012
	c0.266,1.214,0.91,4.743-0.418,8.641l-8.78,0.012c0.14,0.467,0.379,1.101,0.607,1.567h7.541c-0.305,0.634-0.748,1.43-1.001,1.831
	l-5.528,0.004c0.292,0.442,0.759,1.139,1.062,1.456l3.404-0.002c-0.639,0.882-1.721,1.796-1.721,1.796h-0.027l0.035,0.012
	c-2.796,2.519-6.5,4.051-10.559,4.051c-8.72,0-15.788-7.069-15.788-15.788c0-8.72,7.068-15.788,15.788-15.788
	C21.792,2.047,25.488,3.573,28.283,6.083L28.283,6.083z"/>
<path fill="#1E306D" d="M20.496,15.594l-0.254,1.42l-1.385-0.036c0,0-0.692,0.183-0.692,0.474s0.51,0.656,1.275,0.985
	c0.765,0.327,0.801,1.236,0.729,1.856c-0.073,0.619-0.182,1.904-2.405,1.968c-1.275,0.036-1.967-0.219-1.967-0.219l0.291-1.457
	c0,0,1.64,0.438,2.004,0.182c0.364-0.255,0.801-0.692,0.109-0.983c-0.692-0.291-1.821-0.765-1.821-1.931s0.474-1.822,1.202-2.151
	C18.31,15.376,19.585,15.411,20.496,15.594L20.496,15.594z"/>
<polygon fill="#1E306D" points="9.55,22.092 7.94,22.092 8.876,16.558 6.886,22.06 5.775,22.06 5.506,16.337 4.532,22.092 
	3.01,22.092 4.445,13.645 6.292,13.645 6.939,18.509 9.089,13.645 10.985,13.645 9.55,22.092 "/>
<path fill="#1E306D" d="M21.935,22.211c-0.525,0-0.899-0.119-1.124-0.338c-0.224-0.237-0.337-0.594-0.337-1.05
	c0-0.119,0.013-0.236,0.025-0.338c0.013-0.119,0.038-0.255,0.05-0.406l0.968-5.408h1.51l-0.219,1.056h1.411l-0.237,1.336h-1.411
	l-0.387,2.304c-0.025,0.152-0.05,0.304-0.075,0.475c-0.025,0.151-0.038,0.305-0.038,0.406c0,0.237,0.038,0.389,0.137,0.474
	c0.088,0.084,0.238,0.136,0.438,0.136c0.075,0,0.175-0.017,0.3-0.052c0.125-0.05,0.237-0.084,0.311-0.136h0.125l-0.238,1.354
	c-0.174,0.067-0.349,0.102-0.536,0.135C22.421,22.196,22.197,22.211,21.935,22.211L21.935,22.211z"/>
<path fill="#1E306D" d="M32.77,17.507c-0.328-0.255-1.063-0.203-1.217,0.319l-0.724,4.266h-1.51l1.086-6.365h1.51l-0.032,0.514
	c0.288-0.288,0.608-0.531,1.418-0.506C33.351,15.736,32.812,16.68,32.77,17.507L32.77,17.507z"/>
<path fill="#1E306D" d="M35.623,22.263c-0.835,0-1.497-0.288-1.946-0.848c-0.464-0.558-0.687-1.37-0.687-2.421
	c0-0.828,0.1-1.575,0.299-2.252c0.198-0.675,0.486-1.251,0.837-1.744c0.348-0.473,0.762-0.846,1.248-1.116
	c0.474-0.271,0.986-0.407,1.523-0.407c0.424,0,0.823,0.067,1.197,0.186c0.183,0.063,0.528,0.228,0.528,0.228l-0.35,2.006
	c-0.175-0.222-0.35-0.396-0.529-0.524c-0.262-0.168-0.574-0.27-0.922-0.27c-0.625,0-1.136,0.337-1.537,1.015
	c-0.412,0.678-0.61,1.541-0.61,2.59c0,0.678,0.113,1.17,0.336,1.474c0.225,0.288,0.551,0.44,0.974,0.44
	c0.388,0,0.75-0.101,1.086-0.306c0.161-0.104,0.318-0.215,0.47-0.341l-0.351,1.916c0,0-0.183,0.089-0.269,0.119
	c-0.212,0.083-0.399,0.135-0.561,0.187C36.184,22.23,35.936,22.263,35.623,22.263L35.623,22.263z"/>
<path fill="#1E306D" d="M13.267,21.874c-0.062,0.051-0.125,0.085-0.174,0.117c-0.163,0.086-0.3,0.153-0.437,0.205
	c-0.138,0.034-0.326,0.067-0.575,0.067c-0.387,0-0.711-0.153-0.949-0.44c-0.25-0.304-0.375-0.694-0.375-1.168
	c0-0.508,0.087-0.932,0.262-1.287c0.174-0.34,0.437-0.628,0.786-0.829c0.325-0.203,0.712-0.339,1.149-0.424l0.312-0.052
	c0.363-0.067,0.737-0.117,1.148-0.135c0-0.034,0-0.068,0.012-0.118c0.013-0.052,0.013-0.102,0.013-0.17
	c0-0.271-0.087-0.457-0.274-0.576c-0.188-0.102-0.462-0.151-0.824-0.151h-0.076c-0.225,0.016-0.474,0.067-0.749,0.169
	c-0.3,0.119-0.524,0.203-0.674,0.288h-0.137l0.225-1.507c0.174-0.067,0.449-0.135,0.811-0.202c0.175-0.052,0.351-0.068,0.524-0.085
	c0.188-0.034,0.388-0.034,0.574-0.034c0.736,0,1.273,0.135,1.623,0.389c0.349,0.254,0.512,0.661,0.512,1.219
	c0,0.068,0,0.169-0.013,0.289c-0.012,0.119-0.024,0.22-0.037,0.32l-0.737,4.334h-1.498l0.113-0.677
	c-0.088,0.085-0.213,0.187-0.338,0.306C13.392,21.771,13.33,21.823,13.267,21.874L13.267,21.874z M13.267,19.233
	c-0.162,0.034-0.299,0.084-0.412,0.135c-0.175,0.085-0.299,0.202-0.387,0.355c-0.099,0.153-0.138,0.356-0.138,0.609
	c0,0.221,0.062,0.372,0.176,0.457c0.124,0.086,0.287,0.136,0.523,0.136c0.075,0,0.149-0.016,0.237-0.05
	c0.076-0.018,0.15-0.052,0.238-0.086c0.162-0.101,0.324-0.221,0.474-0.355l0.226-1.354c-0.262,0.034-0.524,0.068-0.75,0.12
	C13.392,19.2,13.33,19.215,13.267,19.233L13.267,19.233z"/>
<path fill="#1E306D" d="M26.322,16.829c-0.2,0.032-0.387,0.134-0.537,0.305c-0.212,0.236-0.374,0.541-0.487,0.947h1.023h1.011
	c0-0.067,0.013-0.119,0.013-0.187c0-0.05,0.012-0.117,0.012-0.169c0-0.306-0.075-0.524-0.213-0.695
	c-0.137-0.15-0.324-0.235-0.586-0.235C26.484,16.794,26.396,16.811,26.322,16.829L26.322,16.829z M26.322,20.824h0.225
	c0.324,0,0.636-0.067,0.936-0.221c0.288-0.153,0.549-0.322,0.762-0.508h0.175l-0.288,1.643c-0.287,0.17-0.6,0.305-0.923,0.389
	c-0.275,0.085-0.575,0.119-0.887,0.137h-0.137c-0.812,0-1.423-0.238-1.859-0.729c-0.438-0.475-0.65-1.135-0.65-1.98
	c0-0.575,0.075-1.117,0.212-1.593c0.138-0.49,0.35-0.913,0.612-1.286c0.262-0.356,0.574-0.626,0.961-0.847
	c0.274-0.135,0.562-0.236,0.861-0.288c0.137-0.016,0.274-0.016,0.412-0.016c0.699,0,1.224,0.185,1.585,0.576
	c0.349,0.372,0.524,0.948,0.524,1.692c0,0.255-0.013,0.509-0.05,0.763c-0.038,0.236-0.087,0.491-0.15,0.728h-2.322h-1.173v0.067
	v0.068c0,0.44,0.125,0.779,0.35,1.031C25.685,20.655,25.96,20.79,26.322,20.824L26.322,20.824z"/>
<path fill="#1E306D" d="M40.469,21.874c-0.063,0.051-0.126,0.085-0.188,0.117c-0.15,0.086-0.3,0.153-0.438,0.205
	c-0.137,0.034-0.326,0.067-0.562,0.067c-0.399,0-0.712-0.153-0.96-0.44c-0.249-0.304-0.364-0.694-0.364-1.168
	c0-0.508,0.09-0.932,0.265-1.287c0.173-0.34,0.438-0.628,0.773-0.829c0.324-0.203,0.712-0.339,1.159-0.424
	c0.102-0.018,0.201-0.034,0.314-0.052c0.348-0.067,0.735-0.117,1.135-0.135c0.013-0.034,0.013-0.068,0.026-0.118
	c0-0.052,0.012-0.102,0.012-0.17c0-0.271-0.1-0.457-0.274-0.576c-0.188-0.102-0.461-0.151-0.825-0.151h-0.073
	c-0.239,0.016-0.487,0.067-0.75,0.169c-0.3,0.119-0.522,0.203-0.674,0.288h-0.138l0.213-1.507c0.175-0.067,0.449-0.135,0.823-0.202
	c0.175-0.052,0.351-0.068,0.525-0.085c0.187-0.034,0.373-0.034,0.574-0.034c0.735,0,1.272,0.135,1.623,0.389
	c0.336,0.254,0.511,0.661,0.511,1.219c0,0.068,0,0.169-0.014,0.289c-0.013,0.119-0.024,0.22-0.036,0.32l-0.737,4.334h-1.498
	l0.113-0.677c-0.099,0.085-0.214,0.187-0.35,0.306L40.469,21.874L40.469,21.874z M40.469,19.233
	c-0.163,0.034-0.301,0.084-0.426,0.135c-0.161,0.085-0.298,0.202-0.388,0.355c-0.086,0.153-0.138,0.356-0.138,0.609
	c0,0.221,0.064,0.372,0.189,0.457c0.111,0.086,0.286,0.136,0.511,0.136c0.076,0,0.163-0.016,0.251-0.05
	c0.073-0.018,0.148-0.052,0.223-0.086c0.175-0.101,0.326-0.221,0.475-0.355l0.237-1.354c-0.274,0.034-0.523,0.068-0.762,0.12
	C40.58,19.2,40.519,19.215,40.469,19.233L40.469,19.233z"/>
<path fill="#1E306D" d="M46.837,17.507c-0.33-0.255-1.063-0.203-1.217,0.319l-0.724,4.266h-1.509l1.085-6.365h1.51l-0.032,0.514
	c0.288-0.288,0.608-0.531,1.418-0.506C47.418,15.736,46.877,16.68,46.837,17.507L46.837,17.507z"/>
<path fill-rule="evenodd" clip-rule="evenodd" fill="#1E306D" d="M49.804,17.082c-0.075,0.034-0.149,0.086-0.213,0.136
	c-0.198,0.135-0.361,0.34-0.499,0.575c-0.111,0.236-0.211,0.509-0.274,0.864c-0.075,0.338-0.113,0.678-0.113,0.999
	c0,0.39,0.075,0.659,0.201,0.83c0.137,0.185,0.336,0.271,0.601,0.271c0.099,0,0.198-0.019,0.298-0.067
	c0.05-0.019,0.088-0.034,0.137-0.068c0.151-0.085,0.289-0.171,0.424-0.288l0.537-3.132c-0.086-0.052-0.185-0.101-0.324-0.137
	c-0.125-0.05-0.236-0.067-0.336-0.067C50.078,16.997,49.94,17.03,49.804,17.082L49.804,17.082z M49.804,21.755
	c-0.111,0.102-0.236,0.203-0.374,0.287c-0.125,0.067-0.25,0.136-0.361,0.169c-0.126,0.034-0.276,0.052-0.438,0.052
	c-0.464,0-0.825-0.205-1.1-0.594c-0.261-0.405-0.397-0.98-0.397-1.71c0-0.609,0.062-1.186,0.21-1.71
	c0.138-0.524,0.338-0.999,0.589-1.404c0.249-0.407,0.537-0.711,0.873-0.949c0.324-0.22,0.648-0.337,0.998-0.355h0.05
	c0.263,0,0.487,0.034,0.674,0.101c0.189,0.068,0.388,0.187,0.587,0.34l0.336-2.22h1.509l-1.384,8.331h-1.509l0.113-0.659
	C50.04,21.552,49.917,21.654,49.804,21.755L49.804,21.755z"/>
<path fill="#FFFFFF" d="M20.8,15.367l-0.255,1.42l-1.385-0.035c0,0-0.692,0.181-0.692,0.473c0,0.291,0.51,0.656,1.275,0.983
	c0.766,0.329,0.802,1.238,0.729,1.858c-0.072,0.619-0.182,1.904-2.404,1.968c-1.275,0.036-1.968-0.219-1.968-0.219l0.292-1.457
	c0,0,1.64,0.438,2.004,0.182c0.364-0.255,0.801-0.692,0.109-0.983c-0.692-0.291-1.822-0.767-1.822-1.931
	c0-1.166,0.474-1.822,1.203-2.15C18.613,15.148,19.889,15.184,20.8,15.367L20.8,15.367z"/>
<polygon fill="#FFFFFF" points="9.854,21.866 8.244,21.866 9.18,16.33 7.189,21.833 6.079,21.833 5.81,16.109 4.836,21.866 
	3.313,21.866 4.749,13.417 6.596,13.417 7.243,18.282 9.392,13.417 11.29,13.417 9.854,21.866 "/>
<path fill="#FFFFFF" d="M22.238,21.984c-0.524,0-0.898-0.118-1.123-0.339c-0.226-0.236-0.338-0.593-0.338-1.049
	c0-0.119,0.013-0.236,0.025-0.34c0.013-0.117,0.037-0.252,0.05-0.405l0.968-5.407h1.51l-0.22,1.056h1.411l-0.237,1.336h-1.41
	l-0.387,2.305c-0.025,0.15-0.05,0.303-0.075,0.472c-0.024,0.153-0.037,0.307-0.037,0.407c0,0.236,0.037,0.39,0.137,0.475
	c0.088,0.084,0.238,0.136,0.437,0.136c0.075,0,0.175-0.019,0.299-0.052c0.125-0.05,0.238-0.084,0.312-0.136h0.125l-0.237,1.355
	c-0.175,0.067-0.349,0.102-0.536,0.134C22.725,21.966,22.501,21.984,22.238,21.984L22.238,21.984z"/>
<path fill="#FFFFFF" d="M33.074,17.28c-0.33-0.255-1.064-0.203-1.217,0.319l-0.725,4.267h-1.509L30.71,15.5h1.509l-0.031,0.514
	c0.288-0.288,0.606-0.532,1.415-0.507C33.654,15.509,33.113,16.453,33.074,17.28L33.074,17.28z"/>
<path fill="#FFFFFF" d="M35.927,22.036c-0.837,0-1.499-0.287-1.946-0.848c-0.463-0.558-0.688-1.37-0.688-2.421
	c0-0.83,0.101-1.575,0.3-2.252c0.199-0.678,0.487-1.252,0.835-1.744c0.351-0.473,0.764-0.846,1.251-1.117
	c0.471-0.272,0.984-0.407,1.521-0.407c0.424,0,0.825,0.068,1.199,0.187c0.181,0.062,0.529,0.227,0.529,0.227l-0.351,2.007
	c-0.175-0.222-0.35-0.398-0.528-0.524c-0.263-0.169-0.575-0.272-0.925-0.272c-0.624,0-1.136,0.34-1.535,1.017
	c-0.411,0.678-0.612,1.542-0.612,2.591c0,0.677,0.113,1.169,0.338,1.473c0.225,0.287,0.549,0.44,0.975,0.44
	c0.386,0,0.747-0.104,1.086-0.305c0.159-0.105,0.315-0.216,0.469-0.342l-0.352,1.916c0,0-0.182,0.089-0.269,0.119
	c-0.211,0.084-0.397,0.135-0.561,0.185C36.488,22,36.239,22.036,35.927,22.036L35.927,22.036z"/>
<path fill="#FFFFFF" d="M13.571,21.645c-0.062,0.052-0.125,0.085-0.175,0.119c-0.162,0.085-0.299,0.152-0.437,0.202
	c-0.137,0.033-0.325,0.069-0.574,0.069c-0.387,0-0.711-0.153-0.948-0.44c-0.25-0.307-0.375-0.695-0.375-1.168
	c0-0.508,0.087-0.932,0.263-1.286c0.175-0.341,0.436-0.629,0.786-0.831c0.324-0.202,0.711-0.338,1.148-0.423l0.312-0.052
	c0.362-0.067,0.737-0.117,1.149-0.136c0-0.033,0-0.067,0.012-0.118c0.013-0.05,0.013-0.102,0.013-0.169
	c0-0.271-0.088-0.457-0.275-0.576c-0.188-0.101-0.462-0.151-0.824-0.151h-0.075c-0.225,0.017-0.474,0.067-0.749,0.169
	c-0.299,0.119-0.525,0.203-0.675,0.288h-0.137l0.225-1.507c0.175-0.067,0.449-0.135,0.812-0.203
	c0.174-0.052,0.349-0.068,0.524-0.085c0.188-0.034,0.387-0.034,0.575-0.034c0.737,0,1.273,0.135,1.622,0.389
	c0.35,0.255,0.512,0.662,0.512,1.219c0,0.068,0,0.169-0.013,0.289c-0.013,0.119-0.025,0.221-0.038,0.321l-0.735,4.334h-1.499
	l0.113-0.678c-0.088,0.085-0.212,0.187-0.337,0.306C13.696,21.543,13.633,21.595,13.571,21.645L13.571,21.645z M13.571,19.005
	c-0.163,0.034-0.299,0.084-0.412,0.136c-0.174,0.083-0.3,0.201-0.386,0.354c-0.1,0.153-0.138,0.355-0.138,0.609
	c0,0.221,0.062,0.372,0.174,0.457c0.125,0.084,0.288,0.136,0.524,0.136c0.075,0,0.15-0.017,0.237-0.052
	c0.075-0.016,0.15-0.05,0.238-0.084c0.162-0.102,0.324-0.221,0.474-0.355l0.225-1.354c-0.262,0.034-0.524,0.068-0.748,0.119
	C13.696,18.971,13.633,18.988,13.571,19.005L13.571,19.005z"/>
<path fill="#FFFFFF" d="M26.625,16.6c-0.199,0.034-0.386,0.136-0.536,0.304c-0.212,0.238-0.375,0.543-0.487,0.949h1.023h1.012
	c0-0.067,0.013-0.119,0.013-0.187c0-0.05,0.012-0.118,0.012-0.168c0-0.307-0.075-0.525-0.213-0.696
	c-0.137-0.15-0.323-0.235-0.586-0.235C26.788,16.567,26.701,16.583,26.625,16.6L26.625,16.6z M26.625,20.596h0.225
	c0.325,0,0.637-0.067,0.937-0.221c0.287-0.153,0.549-0.321,0.76-0.508h0.175l-0.287,1.642c-0.287,0.172-0.599,0.306-0.923,0.391
	c-0.275,0.084-0.575,0.118-0.887,0.136h-0.137c-0.811,0-1.423-0.237-1.86-0.729c-0.436-0.475-0.649-1.135-0.649-1.98
	c0-0.576,0.076-1.117,0.213-1.593c0.137-0.49,0.349-0.914,0.611-1.287c0.262-0.355,0.575-0.625,0.961-0.846
	c0.275-0.135,0.562-0.237,0.861-0.289c0.137-0.016,0.274-0.016,0.412-0.016c0.7,0,1.224,0.185,1.585,0.574
	c0.349,0.373,0.525,0.948,0.525,1.694c0,0.254-0.013,0.508-0.05,0.763c-0.038,0.235-0.088,0.49-0.15,0.727h-2.323h-1.173v0.067
	v0.067c0,0.44,0.125,0.779,0.35,1.032C25.989,20.427,26.263,20.562,26.625,20.596L26.625,20.596z"/>
<path fill="#FFFFFF" d="M40.771,21.645c-0.062,0.052-0.125,0.085-0.187,0.119c-0.149,0.085-0.299,0.152-0.436,0.202
	c-0.138,0.033-0.326,0.069-0.562,0.069c-0.4,0-0.712-0.153-0.961-0.44c-0.25-0.307-0.363-0.695-0.363-1.168
	c0-0.508,0.087-0.932,0.264-1.286c0.174-0.341,0.436-0.629,0.774-0.831c0.323-0.202,0.711-0.338,1.159-0.423
	c0.101-0.019,0.2-0.034,0.312-0.052c0.351-0.067,0.738-0.117,1.138-0.136c0.012-0.033,0.012-0.067,0.023-0.118
	c0-0.05,0.014-0.102,0.014-0.169c0-0.271-0.099-0.457-0.276-0.576c-0.187-0.101-0.461-0.151-0.822-0.151h-0.076
	c-0.236,0.017-0.485,0.067-0.747,0.169c-0.301,0.119-0.525,0.203-0.675,0.288h-0.137l0.213-1.507
	c0.175-0.067,0.447-0.135,0.823-0.203c0.175-0.052,0.348-0.068,0.522-0.085c0.189-0.034,0.374-0.034,0.575-0.034
	c0.737,0,1.272,0.135,1.624,0.389c0.336,0.255,0.511,0.662,0.511,1.219c0,0.068,0,0.169-0.012,0.289
	c-0.014,0.119-0.025,0.221-0.04,0.321l-0.735,4.334h-1.499l0.115-0.678c-0.102,0.085-0.213,0.187-0.35,0.306L40.771,21.645
	L40.771,21.645z M40.771,19.005c-0.161,0.034-0.298,0.084-0.423,0.136c-0.161,0.083-0.301,0.201-0.386,0.354
	c-0.09,0.153-0.14,0.355-0.14,0.609c0,0.221,0.063,0.372,0.188,0.457c0.111,0.084,0.287,0.136,0.512,0.136
	c0.073,0,0.163-0.017,0.248-0.052c0.076-0.016,0.151-0.05,0.225-0.084c0.175-0.102,0.324-0.221,0.476-0.355l0.236-1.354
	c-0.274,0.034-0.524,0.068-0.762,0.119C40.884,18.971,40.822,18.988,40.771,19.005L40.771,19.005z"/>
<path fill="#FFFFFF" d="M47.142,17.28c-0.33-0.255-1.064-0.203-1.217,0.319l-0.724,4.267h-1.51l1.086-6.366h1.509l-0.031,0.514
	c0.286-0.288,0.606-0.532,1.417-0.507C47.722,15.509,47.181,16.453,47.142,17.28L47.142,17.28z"/>
<path fill-rule="evenodd" clip-rule="evenodd" fill="#FFFFFF" d="M50.107,16.854c-0.075,0.034-0.148,0.086-0.212,0.136
	c-0.201,0.135-0.362,0.34-0.499,0.576c-0.113,0.235-0.213,0.508-0.274,0.863c-0.076,0.338-0.113,0.678-0.113,0.999
	c0,0.39,0.075,0.66,0.198,0.828c0.14,0.187,0.338,0.272,0.601,0.272c0.102,0,0.201-0.019,0.3-0.068
	c0.05-0.018,0.088-0.033,0.138-0.067c0.149-0.085,0.286-0.171,0.424-0.288l0.536-3.132c-0.087-0.052-0.187-0.104-0.323-0.137
	c-0.126-0.05-0.237-0.066-0.339-0.066C50.382,16.77,50.245,16.802,50.107,16.854L50.107,16.854z M50.107,21.528
	c-0.113,0.102-0.238,0.202-0.375,0.287c-0.124,0.067-0.249,0.135-0.36,0.169c-0.127,0.034-0.276,0.052-0.438,0.052
	c-0.463,0-0.825-0.204-1.1-0.594c-0.262-0.405-0.399-0.981-0.399-1.71c0-0.609,0.062-1.186,0.213-1.71
	c0.137-0.523,0.336-0.999,0.587-1.403c0.25-0.408,0.536-0.713,0.872-0.95c0.326-0.221,0.65-0.338,1-0.356h0.05
	c0.261,0,0.487,0.034,0.675,0.102c0.187,0.067,0.388,0.187,0.586,0.339l0.336-2.22h1.51l-1.384,8.332h-1.51l0.111-0.66
	C50.345,21.323,50.219,21.426,50.107,21.528L50.107,21.528z"/>
</svg>
