<?xml version="1.0" encoding="utf-8"?>
<!-- Generator: Adobe Illustrator 15.1.0, SVG Export Plug-In . SVG Version: 6.00 Build 0)  -->
<!DOCTYPE svg PUBLIC "-//W3C//DTD SVG 1.1//EN" "http://www.w3.org/Graphics/SVG/1.1/DTD/svg11.dtd">
<svg version="1.1" xmlns="http://www.w3.org/2000/svg" xmlns:xlink="http://www.w3.org/1999/xlink" x="0px" y="0px" width="78.66px"
	 height="22.267px" viewBox="0 0 78.66 22.267" enable-background="new 0 0 78.66 22.267" xml:space="preserve">
<g id="logo">
	<g>
		<g>
			<path fill="#00355F" d="M37.812,17.422h-2.443c-0.011,0-0.018-0.002-0.024-0.01l-2.105-2.57l-2.106,2.57
				c-0.005,0.008-0.014,0.01-0.023,0.01h-1.957c-0.012,0-0.021-0.006-0.03-0.019c-0.004-0.007-0.003-0.021,0.004-0.03l3.102-3.809
				l-3.065-3.772c-0.009-0.012-0.009-0.024-0.005-0.036c0.005-0.007,0.017-0.018,0.026-0.018h2.445c0.007,0,0.017,0.004,0.023,0.014
				l1.847,2.29l1.879-2.291c0.005-0.009,0.015-0.013,0.023-0.013h1.992c0.012,0,0.024,0.011,0.029,0.018
				c0.005,0.012,0.004,0.025-0.005,0.036l-2.909,3.494l3.324,4.087c0.007,0.01,0.011,0.023,0.004,0.03
				C37.833,17.416,37.821,17.422,37.812,17.422L37.812,17.422z"/>
			<path fill="#00355F" d="M54.583,14.061c-0.006,0.008-0.017,0.015-0.027,0.015h-5.592c0.117,1.302,0.962,2.043,2.33,2.043
				c0.843,0,1.738-0.288,3.002-0.96c0.023-0.013,0.047,0.006,0.047,0.03l-0.003,1.72c-0.002,0.014-0.008,0.023-0.018,0.026
				c-1.177,0.496-2.358,0.834-3.286,0.834l0,0c-2.408,0-4.154-1.755-4.154-4.172s1.746-4.171,4.154-4.171
				c2.196,0,3.607,1.48,3.607,3.516C54.643,13.271,54.585,14.037,54.583,14.061z M51.035,11.092c-1.082,0-1.822,0.656-2.032,1.798
				h3.681v-0.074C52.684,11.903,52.011,11.092,51.035,11.092L51.035,11.092z"/>
			<path fill="#00355F" d="M64.937,17.422c-0.02,0-0.032-0.012-0.032-0.031v-7.62c0-0.016,0.011-0.028,0.024-0.032h2.02
				c0.017,0.004,0.025,0.016,0.025,0.032v7.62c0,0.02-0.013,0.031-0.029,0.031H64.937z M65.941,8.152
				c-0.686,0-1.244-0.55-1.244-1.225c0-0.696,0.558-1.26,1.244-1.26s1.244,0.564,1.244,1.26C67.186,7.603,66.627,8.152,65.941,8.152
				L65.941,8.152z"/>
			<path fill="#00355F" d="M42.055,9.427c-0.57,0-1.146,0.104-1.749,0.312h-2.01c-0.017,0-0.028,0.014-0.028,0.032v12.496
				c0.606-0.083,1.35-0.299,2.073-0.813l0-3.801c0.495,0.07,0.904,0.117,1.3,0.117c2.751,0,4.533-1.65,4.533-4.205
				C46.172,11.128,44.478,9.427,42.055,9.427z M41.505,16.274c-0.364,0-0.737-0.052-1.165-0.166l0.004-4.89
				c0.502-0.159,0.939-0.235,1.371-0.235c1.4,0,2.339,1.033,2.339,2.567C44.054,15.206,43.053,16.274,41.505,16.274z"/>
			<path fill="#00355F" d="M61.26,5.704v3.989c-0.59-0.168-1.109-0.247-1.633-0.247c-2.396,0-4.204,1.807-4.204,4.205
				c0,2.387,1.595,4.119,3.791,4.119c0.76,0,1.472-0.191,2.309-0.622l-0.002,0.688c0.552-0.105,1.188-0.326,1.812-0.77V4.888
				C62.718,4.97,61.99,5.175,61.26,5.704z M61.26,15.642c-0.63,0.33-1.192,0.487-1.72,0.487c-1.247,0-1.994-0.881-1.994-2.356
				c0-1.707,0.954-2.811,2.429-2.811c0.407,0,0.804,0.1,1.285,0.318V15.642z"/>
			<path fill="#00355F" d="M76.047,9.646c0-0.047-0.041-0.085-0.087-0.085l-1.631,0.003c-0.049,0-0.09,0.041-0.09,0.087V9.93h-0.041
				c-0.754-0.331-1.397-0.484-2.029-0.484c-2.258,0-4.029,1.875-4.029,4.273c0,2.424,1.585,4.05,3.943,4.05
				c0.63,0,1.439-0.043,2.196-0.914v0.98c0.535-0.114,1.167-0.341,1.766-0.772L76.047,9.646z M73.972,15.626
				c-0.609,0.351-1.131,0.521-1.597,0.521c-1.334,0-2.134-0.878-2.134-2.359c0-1.681,0.942-2.81,2.342-2.81
				c0.375,0,0.83,0.144,1.389,0.439V15.626z"/>
			<path fill="#00355F" d="M23.565,15.515l5.07-0.001c-0.076,0.567-0.268,1.229-0.708,1.906h-4.351l-0.866-0.001
				c-0.018,0-0.037,0.001-0.058,0.001c-0.646,0-1.177-0.5-1.24-1.133c-0.003-0.009-0.007-0.019-0.008-0.027v-5.193V6.26
				c0-0.008,0.005-0.019,0.008-0.024c0.063-0.634,0.594-1.136,1.24-1.136c0.021,0,0.04,0.002,0.058,0.002l5.914-0.001
				c-0.078,0.565-0.269,1.245-0.709,1.919h-4.35v2.723h4.307c0.018,0,0.031,0.013,0.031,0.03v1.888c0,0.016-0.013,0.03-0.031,0.03
				h-4.307v3.823V15.515z"/>
		</g>
		<g>
			<path fill="#00355F" d="M17.218,15.738c-0.513,0-0.952,0.386-0.952,0.969c0,0.55,0.396,0.965,0.952,0.965
				c0.507,0,0.947-0.384,0.947-0.965C18.165,16.124,17.725,15.738,17.218,15.738z M17.218,17.578c-0.501,0-0.811-0.392-0.811-0.871
				c0-0.514,0.355-0.871,0.811-0.871c0.452,0,0.806,0.357,0.806,0.871C18.024,17.22,17.67,17.578,17.218,17.578z"/>
			<path fill="#00355F" d="M17.668,16.462c0-0.231-0.142-0.329-0.418-0.329h-0.435v1.146h0.189v-0.49h0.176l0.297,0.49h0.212
				l-0.321-0.503C17.542,16.754,17.668,16.67,17.668,16.462z M16.991,16.627v-0.353h0.238c0.121,0,0.263,0.017,0.263,0.164
				c0,0.175-0.132,0.188-0.281,0.188H16.991z"/>
		</g>
		<g>
			<path fill="#00355F" d="M77.714,9.167c-0.513,0-0.952,0.386-0.952,0.969c0,0.55,0.396,0.965,0.952,0.965
				c0.505,0,0.946-0.384,0.946-0.965C78.66,9.553,78.22,9.167,77.714,9.167z M77.714,11.007c-0.501,0-0.812-0.392-0.812-0.871
				c0-0.514,0.355-0.872,0.812-0.872c0.451,0,0.805,0.358,0.805,0.872C78.52,10.649,78.165,11.007,77.714,11.007z"/>
			<path fill="#00355F" d="M78.164,9.891c0-0.231-0.143-0.33-0.418-0.33h-0.435v1.146h0.188v-0.49h0.177l0.297,0.49h0.212
				l-0.32-0.503C78.036,10.184,78.164,10.099,78.164,9.891z M77.486,10.056V9.704h0.238c0.121,0,0.263,0.017,0.263,0.163
				c0,0.175-0.132,0.188-0.28,0.188H77.486z"/>
		</g>
		<g>
			<path fill="#00355F" d="M10.678,7.012l-0.367-1.041L7.192,1.804l0.56-0.14l5.377,4.648l3.164-0.906
				c0.372-0.095,0.793-0.116,1.115-0.114c-0.994-2.145-2.814-3.905-5.216-4.761c-4.75-1.693-9.972,0.789-11.662,5.54
				C0.008,7.542-0.116,9.058,0.104,10.5l7.579-2.632L10.678,7.012z"/>
			<path fill="#00355F" d="M17.742,6.114c-0.278,0.18-0.686,0.417-1.091,0.547L13.48,7.566l-2.116,6.792l-0.55,0.179l0.448-5.187
				l-0.25-1.078L8.042,9.12l-7.854,1.849c0.623,3.021,2.762,5.654,5.881,6.766c4.75,1.693,9.97-0.789,11.66-5.538
				C18.457,10.149,18.41,8.016,17.742,6.114z"/>
			<path fill="#EEC218" d="M11.013,8.271l0.25,1.078l-0.448,5.187l0.55-0.179l2.116-6.792l3.171-0.905
				c0.405-0.129,0.813-0.367,1.091-0.547c-0.098-0.279-0.209-0.553-0.333-0.821c-0.322-0.002-0.743,0.019-1.115,0.114l-3.164,0.906
				L7.752,1.664l-0.56,0.14l3.119,4.167l0.367,1.041L7.683,7.868L0.104,10.5c0.024,0.157,0.051,0.314,0.083,0.469L8.042,9.12
				L11.013,8.271z"/>
		</g>
	</g>
</g>
<g id="clear_space">
	<rect x="-7.671" y="-7.672" fill="none" width="94.003" height="37.61"/>
</g>
</svg>
