<?xml version="1.0" encoding="utf-8"?>
<!-- Generator: Adobe Illustrator 16.0.0, SVG Export Plug-In . SVG Version: 6.00 Build 0)  -->
<!DOCTYPE svg PUBLIC "-//W3C//DTD SVG 1.1//EN" "http://www.w3.org/Graphics/SVG/1.1/DTD/svg11.dtd">
<svg version="1.1" id="Layer_1" xmlns="http://www.w3.org/2000/svg" xmlns:xlink="http://www.w3.org/1999/xlink" x="0px" y="0px"
	 width="18px" height="18px" viewBox="0 0 18 18" enable-background="new 0 0 18 18" xml:space="preserve">
<g>
	<path fill="#00355F" d="M10.526,6.91l-0.362-1.026L7.089,1.775l0.552-0.139l5.301,4.583l3.119-0.894
		c0.367-0.093,0.781-0.114,1.1-0.112c-0.98-2.114-2.774-3.849-5.143-4.693C7.336-1.149,2.188,1.298,0.522,5.981
		c-0.515,1.45-0.637,2.945-0.42,4.366l7.472-2.595L10.526,6.91z"/>
	<path fill="#00355F" d="M17.49,6.024c-0.274,0.177-0.676,0.411-1.076,0.539l-3.125,0.893l-2.087,6.696l-0.541,0.177l0.44-5.114
		l-0.246-1.063L7.928,8.987L0.185,10.81c0.614,2.979,2.723,5.574,5.797,6.671c4.682,1.669,9.829-0.777,11.494-5.459
		C18.195,10.002,18.148,7.899,17.49,6.024z"/>
	<path fill="#FFFFFF" d="M10.857,8.15l0.246,1.063l-0.442,5.114l0.543-0.177l2.085-6.696l3.127-0.893
		c0.398-0.127,0.801-0.362,1.075-0.539c-0.098-0.275-0.206-0.545-0.328-0.81c-0.318-0.002-0.732,0.019-1.1,0.112l-3.119,0.894
		L7.642,1.637L7.089,1.775l3.075,4.108l0.362,1.026L7.574,7.753l-7.472,2.595c0.023,0.155,0.05,0.311,0.082,0.462l7.744-1.823
		L10.857,8.15z"/>
</g>
</svg>
