<?xml version="1.0" encoding="utf-8"?>
<!-- Generator: Adobe Illustrator 16.0.0, SVG Export Plug-In . SVG Version: 6.00 Build 0)  -->
<!DOCTYPE svg PUBLIC "-//W3C//DTD SVG 1.1//EN" "http://www.w3.org/Graphics/SVG/1.1/DTD/svg11.dtd">
<svg version="1.1" id="Layer_1" xmlns="http://www.w3.org/2000/svg" xmlns:xlink="http://www.w3.org/1999/xlink" x="0px" y="0px"
	 width="18px" height="18px" viewBox="0 0 18 18" enable-background="new 0 0 18 18" xml:space="preserve">
<g id="jMUkug_1_">
</g>
<path fill-rule="evenodd" clip-rule="evenodd" fill="#FFFFFF" d="M16.361,17.999h-4.209v-6.748l2.695-0.001l0.45-2.699l-3.146-0.005
	v-1.89c0-0.799,0.3-1.26,1.463-1.26l1.683-0.093V2.969c-0.257-0.033-1.322-0.236-2.347-0.236c-2.138,0-3.502,1.287-3.502,3.65v2.163
	l-2.7,0.005v2.699l2.7,0.001v6.748h-7.81C0.734,17.999,0,17.267,0,16.363V1.639c0-0.904,0.734-1.636,1.639-1.636h14.722
	C17.267,0.002,18,0.735,18,1.639v14.725C18,17.267,17.267,17.999,16.361,17.999z"/>
</svg>
